<svg width="518" height="116" viewBox="0 0 518 116" fill="none" xmlns="http://www.w3.org/2000/svg">
<path fill-rule="evenodd" clip-rule="evenodd" d="M225.67 7.58496C226.903 16.319 225.252 15.6009 245.014 15.9989C261.549 16.3319 263.093 16.5269 268.233 18.9289C275.213 22.1889 279.864 26.838 283.144 33.829L285.727 39.335L286.039 72.085L286.351 104.835H291.589C294.47 104.835 297.367 104.295 298.027 103.635C299.565 102.097 299.688 49.318 298.175 39.835C296.034 26.409 288.148 14.737 277.318 8.96396C268.486 4.25696 260.343 2.87296 241.363 2.85196L225 2.83496L225.67 7.58496ZM229.553 27.941C230.476 35.731 230.677 35.835 244.899 35.835C254.224 35.835 258.083 36.226 260.355 37.401C265.847 40.241 266.227 42.698 266.227 75.351V104.93L272.477 104.633L278.727 104.335V73.335C278.727 37.592 278.4 35.798 270.643 28.97C264.811 23.836 260.324 22.8349 243.145 22.8349H228.948L229.553 27.941Z" fill="#204E66"/>
<path fill-rule="evenodd" clip-rule="evenodd" d="M299.716 1.429C296.691 2.123 292.943 3.213 291.386 3.851L288.557 5.011L291.734 9.023C295.961 14.36 297.249 14.889 303.716 13.947C306.741 13.507 315.168 13.113 322.443 13.073C337.435 12.99 337.835 12.779 339.208 4.25L339.892 0L322.554 0.0839996C312.489 0.132 302.909 0.697 299.716 1.429ZM304.051 20.717L300.886 21.114L302.893 27.057L304.9 33L318.058 32.985C325.295 32.976 331.811 32.592 332.538 32.131C333.266 31.67 334.267 29.539 334.764 27.396C336.585 19.547 337.384 19.981 321.466 20.16C313.628 20.248 305.792 20.499 304.051 20.717Z" fill="#FCDE39"/>
<path d="M21.87 39.93V93.84C21.87 94.74 22.08 95.4 22.5 95.82C22.98 96.24 24 96.45 25.56 96.45H32.22V105H20.79C18.39 105 16.38 104.82 14.76 104.46C13.2 104.1 11.82 103.38 10.62 102.3C9.48 101.16 8.58 99.9 7.92 98.52C7.32 97.14 6.84 95.07 6.48 92.31C5.94 88.17 5.67 82.62 5.67 75.66C5.67 68.64 5.7 63.69 5.76 60.81C5.88 57.93 6.12 55.14 6.48 52.44C6.84 49.68 7.32 47.64 7.92 46.32C8.58 44.94 9.48 43.71 10.62 42.63C11.82 41.49 13.2 40.77 14.76 40.47C16.38 40.11 18.39 39.93 20.79 39.93H21.87ZM25.47 69.54H41.31C47.19 69.54 50.13 72.24 50.13 77.64V96.36C50.13 100.08 49.83 102.45 49.23 103.47C48.69 104.49 47.07 105 44.37 105H35.82V80.7C35.82 79.74 35.67 79.08 35.37 78.72C35.13 78.3 34.47 78.09 33.39 78.09H25.47V69.54ZM25.47 39.93H36.9C41.28 39.93 44.58 40.68 46.8 42.18C49.08 43.68 50.22 46.29 50.22 50.01V58.11C50.22 59.37 49.8 60 48.96 60H37.62C36.78 60 36.27 59.88 36.09 59.64C35.91 59.4 35.82 58.89 35.82 58.11V51.09C35.82 50.13 35.67 49.47 35.37 49.11C35.13 48.69 34.47 48.48 33.39 48.48H25.47V39.93ZM74.2627 105H74.0827C68.1427 105 64.4827 103.98 63.1027 101.94C62.4427 100.98 61.9027 100.05 61.4827 99.15C61.1227 98.25 60.8827 96.84 60.7627 94.92C60.4627 91.44 60.3127 87.57 60.3127 83.31C60.3127 79.05 60.3427 75.99 60.4027 74.13C60.4627 72.21 60.6427 70.29 60.9427 68.37C61.3027 66.39 61.7527 64.98 62.2927 64.14C62.8327 63.24 63.6427 62.43 64.7227 61.71C65.8027 60.99 67.0627 60.54 68.5027 60.36C69.9427 60.12 71.8027 60 74.0827 60H74.2627V105ZM98.2027 90.78V95.37C98.2027 101.79 94.9327 105 88.3927 105H77.0527V98.25H81.9127C83.1727 98.25 83.9527 98.07 84.2527 97.71C84.5527 97.29 84.7027 96.57 84.7027 95.55V92.67C84.7027 91.77 84.7927 91.26 84.9727 91.14C85.2127 91.02 85.3627 90.96 85.4227 90.96C85.4827 90.9 85.6327 90.87 85.8727 90.87C86.1727 90.81 86.3827 90.78 86.5027 90.78C90.4027 90.78 94.3027 90.78 98.2027 90.78ZM77.0527 60H87.4927C91.6327 60 94.4527 60.81 95.9527 62.43C97.4527 64.05 98.2027 66.45 98.2027 69.63V77.55C98.2027 82.95 95.2627 85.65 89.3827 85.65H76.1527V78.9H81.0127C82.4527 78.9 83.4127 78.72 83.8927 78.36C84.4327 78 84.7027 77.31 84.7027 76.29V69.45C84.7027 68.43 84.5527 67.74 84.2527 67.38C83.9527 66.96 83.1727 66.75 81.9127 66.75H77.0527V60ZM130.56 104.28C130.56 104.64 130.38 104.88 130.02 105H123.18C118.8 105 115.62 104.13 113.64 102.39C111.66 100.65 110.67 97.59 110.67 93.21V66.93H106.08C104.58 66.93 103.83 66.03 103.83 64.23V60H110.67V39.93H116.16C118.8 39.93 120.78 40.59 122.1 41.91C123.48 43.23 124.17 44.91 124.17 46.95V94.83C124.17 97.05 125.43 98.16 127.95 98.16H129.84C130.32 98.16 130.56 98.37 130.56 98.79V104.28ZM133.35 60V64.23C133.35 66.03 132.6 66.93 131.1 66.93H126.42V60H133.35ZM157.798 60.09H163.288C165.928 60.09 167.908 60.75 169.228 62.07C170.608 63.33 171.298 64.98 171.298 67.02V105H161.038C160.078 105 159.298 104.67 158.698 104.01C158.098 103.35 157.798 102.48 157.798 101.4V60.09ZM158.428 40.92C159.088 40.26 161.008 39.93 164.188 39.93C167.368 39.93 169.288 40.26 169.948 40.92C170.608 41.52 170.938 43.32 170.938 46.32C170.938 49.32 170.578 51.15 169.858 51.81C169.198 52.47 167.308 52.8 164.188 52.8C161.068 52.8 159.148 52.47 158.428 51.81C157.768 51.15 157.438 49.32 157.438 46.32C157.438 43.32 157.768 41.52 158.428 40.92ZM197.366 60H209.966C216.506 60 219.776 63.21 219.776 69.63V105H209.516C208.556 105 207.776 104.67 207.176 104.01C206.576 103.35 206.276 102.48 206.276 101.4V69.45C206.276 68.49 206.036 67.8 205.556 67.38C205.136 66.96 204.146 66.75 202.586 66.75H197.366V60ZM181.616 60H187.106C189.746 60 191.726 60.66 193.046 61.98C194.426 63.24 195.116 64.89 195.116 66.93V105H184.856C183.896 105 183.116 104.67 182.516 104.01C181.916 103.35 181.616 102.48 181.616 101.4V60Z" fill="#204E66"/>
<path d="M335.24 60H343.97C346.25 60 348.11 60.12 349.55 60.36C350.99 60.54 352.25 60.99 353.33 61.71C354.41 62.43 355.22 63.24 355.76 64.14C356.3 64.98 356.72 66.36 357.02 68.28C357.5 70.98 357.74 74.76 357.74 79.62C357.74 84.48 357.71 87.78 357.65 89.52C357.59 91.2 357.47 93 357.29 94.92C357.17 96.84 356.9 98.25 356.48 99.15C356.12 100.05 355.61 100.98 354.95 101.94C354.35 102.84 353.54 103.47 352.52 103.83C350.3 104.61 347.45 105 343.97 105H343.79V71.07C343.79 70.95 343.79 70.59 343.79 69.99C343.79 69.39 343.76 68.88 343.7 68.46C343.4 67.32 342.2 66.75 340.1 66.75H335.24V60ZM332.54 60V93.93C332.54 94.05 332.54 94.41 332.54 95.01C332.54 95.61 332.6 96.12 332.72 96.54C332.96 97.68 334.13 98.25 336.23 98.25H341.09V105H332.36C330.08 105 328.22 104.91 326.78 104.73C325.34 104.49 324.08 104.01 323 103.29C321.92 102.57 321.11 101.79 320.57 100.95C320.03 100.05 319.58 98.64 319.22 96.72C318.8 94.02 318.59 90.24 318.59 85.38C318.59 80.52 318.62 77.25 318.68 75.57C318.74 73.83 318.83 72 318.95 70.08C319.13 68.16 319.4 66.75 319.76 65.85C320.18 64.95 320.69 64.05 321.29 63.15C321.95 62.19 322.79 61.53 323.81 61.17C326.03 60.39 328.88 60 332.36 60H332.54ZM367.38 60H377.64C378.6 60 379.38 60.33 379.98 60.99C380.58 61.65 380.88 62.52 380.88 63.6V95.55C380.88 96.51 381.09 97.2 381.51 97.62C381.99 98.04 383.01 98.25 384.57 98.25H389.79V105H377.19C370.65 105 367.38 101.79 367.38 95.37V60ZM409.59 104.37C409.59 104.79 409.44 105 409.14 105H400.05C397.41 105 395.4 104.37 394.02 103.11C392.7 101.79 392.04 100.11 392.04 98.07V60H402.3C403.26 60 404.04 60.33 404.64 60.99C405.24 61.65 405.54 62.52 405.54 63.6V94.83C405.54 96.69 405.93 97.74 406.71 97.98C407.13 98.16 407.7 98.25 408.42 98.25H408.87C409.35 98.25 409.59 98.46 409.59 98.88V104.37ZM430.186 105H430.006C424.066 105 420.406 103.98 419.026 101.94C418.366 100.98 417.826 100.05 417.406 99.15C417.046 98.25 416.806 96.84 416.686 94.92C416.386 91.44 416.236 87.57 416.236 83.31C416.236 79.05 416.266 75.99 416.326 74.13C416.386 72.21 416.566 70.29 416.866 68.37C417.226 66.39 417.676 64.98 418.216 64.14C418.756 63.24 419.566 62.43 420.646 61.71C421.726 60.99 422.986 60.54 424.426 60.36C425.866 60.12 427.726 60 430.006 60H430.186V105ZM440.626 90.78C444.646 90.78 447.706 90.78 449.806 90.78C451.906 90.78 452.986 90.81 453.046 90.87C453.106 90.87 453.196 90.9 453.316 90.96C453.496 90.96 453.616 90.99 453.676 91.05C453.736 91.11 453.796 91.2 453.856 91.32C453.916 91.38 453.946 91.5 453.946 91.68C454.066 92.1 454.126 92.43 454.126 92.67V95.37C454.126 101.79 450.856 105 444.316 105H432.976V98.25H437.836C439.096 98.25 439.876 98.07 440.176 97.71C440.476 97.29 440.626 96.57 440.626 95.55V90.78ZM432.976 60H444.316C450.856 60 454.126 63.21 454.126 69.63V75.75C450.106 75.75 447.046 75.75 444.946 75.75C442.846 75.75 441.766 75.75 441.706 75.75C441.646 75.69 441.526 75.66 441.346 75.66C441.226 75.6 441.136 75.54 441.076 75.48C441.016 75.42 440.956 75.36 440.896 75.3C440.836 75.18 440.806 75.06 440.806 74.94C440.686 74.46 440.626 74.1 440.626 73.86V69.45C440.626 68.43 440.476 67.74 440.176 67.38C439.876 66.96 439.096 66.75 437.836 66.75H432.976V60ZM478.935 60H491.535C498.075 60 501.345 63.21 501.345 69.63V105H491.085C490.125 105 489.345 104.67 488.745 104.01C488.145 103.35 487.845 102.48 487.845 101.4V69.45C487.845 68.49 487.605 67.8 487.125 67.38C486.705 66.96 485.715 66.75 484.155 66.75H478.935V60ZM463.185 39.93H468.675C471.315 39.93 473.295 40.59 474.615 41.91C475.995 43.17 476.685 44.82 476.685 46.86V105H466.425C465.465 105 464.685 104.67 464.085 104.01C463.485 103.35 463.185 102.48 463.185 101.4V39.93Z" fill="#204E66"/>
</svg>
