<svg width="15" height="10" viewBox="0 0 15 10" fill="none" xmlns="http://www.w3.org/2000/svg">
<g clip-path="url(#clip0_2067_19)">
<path d="M13 4.99995L13.7071 4.29284L14.4142 4.99995L13.7071 5.70706L13 4.99995ZM0.99997 5.99995C0.44767 5.99995 -2.95639e-05 5.55223 -2.95639e-05 4.99995C-2.95639e-05 4.44767 0.44767 3.99995 0.99997 3.99995V5.99995ZM9.70708 0.292847L13.7071 4.29284L12.2929 5.70706L8.29286 1.70706L9.70708 0.292847ZM13.7071 5.70706L9.70708 9.70706L8.29286 8.29284L12.2929 4.29284L13.7071 5.70706ZM13 5.99995H0.99997V3.99995H13V5.99995Z" fill="#33363F"/>
</g>
<defs>
<clipPath id="clip0_2067_19">
<rect width="15" height="10" fill="white" transform="matrix(-1 0 0 1 15 0)"/>
</clipPath>
</defs>
</svg>
