<svg width="848" height="468" viewBox="0 0 848 468" fill="none" xmlns="http://www.w3.org/2000/svg">
<path fill-rule="evenodd" clip-rule="evenodd" d="M0.67 341.585C1.903 350.319 0.252001 349.601 20.014 349.999C36.549 350.332 38.093 350.527 43.233 352.929C50.213 356.189 54.864 360.838 58.144 367.829L60.727 373.335L61.039 406.085L61.351 438.835H66.589C69.47 438.835 72.367 438.295 73.027 437.635C74.565 436.097 74.688 383.318 73.175 373.835C71.034 360.409 63.148 348.737 52.318 342.964C43.486 338.257 35.343 336.873 16.363 336.852L0 336.835L0.67 341.585ZM4.553 361.941C5.476 369.731 5.677 369.835 19.899 369.835C29.224 369.835 33.083 370.226 35.355 371.401C40.847 374.241 41.227 376.698 41.227 409.351V438.93L47.477 438.633L53.727 438.335V407.335C53.727 371.592 53.4 369.798 45.643 362.97C39.811 357.836 35.324 356.835 18.145 356.835H3.948L4.553 361.941Z" fill="#113157"/>
<path fill-rule="evenodd" clip-rule="evenodd" d="M74.7161 335.429C71.6911 336.123 67.9431 337.213 66.3861 337.851L63.5571 339.011L66.7341 343.023C70.9611 348.36 72.2491 348.889 78.7161 347.947C81.7411 347.507 90.1681 347.113 97.4431 347.073C112.435 346.99 112.835 346.779 114.208 338.25L114.892 334L97.5541 334.084C87.4891 334.132 77.9091 334.697 74.7161 335.429ZM79.0511 354.717L75.8861 355.114L77.8931 361.057L79.9001 367L93.0581 366.985C100.295 366.976 106.811 366.592 107.538 366.131C108.266 365.67 109.267 363.539 109.764 361.396C111.585 353.547 112.384 353.981 96.4661 354.16C88.6281 354.248 80.7921 354.499 79.0511 354.717Z" fill="#D68527"/>
<path fill-rule="evenodd" clip-rule="evenodd" d="M0.67 29.585C1.903 38.319 0.252001 37.6009 20.014 37.9989C36.549 38.3319 38.093 38.5269 43.233 40.9289C50.213 44.1889 54.864 48.838 58.144 55.829L60.727 61.335L61.039 94.085L61.351 126.835H66.589C69.47 126.835 72.367 126.295 73.027 125.635C74.565 124.097 74.688 71.318 73.175 61.835C71.034 48.409 63.148 36.737 52.318 30.964C43.486 26.257 35.343 24.873 16.363 24.852L0 24.835L0.67 29.585ZM4.553 49.941C5.476 57.731 5.677 57.835 19.899 57.835C29.224 57.835 33.083 58.226 35.355 59.401C40.847 62.241 41.227 64.698 41.227 97.351V126.93L47.477 126.633L53.727 126.335V95.335C53.727 59.592 53.4 57.798 45.643 50.97C39.811 45.836 35.324 44.8349 18.145 44.8349H3.948L4.553 49.941Z" fill="#113157"/>
<path fill-rule="evenodd" clip-rule="evenodd" d="M74.7161 23.429C71.6911 24.123 67.9431 25.213 66.3861 25.851L63.5571 27.011L66.7341 31.023C70.9611 36.36 72.2491 36.889 78.7161 35.947C81.7411 35.507 90.1681 35.113 97.4431 35.073C112.435 34.99 112.835 34.779 114.208 26.25L114.892 22L97.5541 22.084C87.4891 22.132 77.9091 22.697 74.7161 23.429ZM79.0511 42.717L75.8861 43.114L77.8931 49.057L79.9001 55L93.0581 54.985C100.295 54.976 106.811 54.592 107.538 54.131C108.266 53.67 109.267 51.539 109.764 49.396C111.585 41.547 112.384 41.981 96.4661 42.16C88.6281 42.248 80.7921 42.499 79.0511 42.717Z" fill="#D68527"/>
<path d="M106.245 63H121.605C122.117 63 122.373 63.2987 122.373 63.896V71.704C122.373 72.3013 122.032 72.6 121.349 72.6H115.589C113.541 72.6 112.346 72.984 112.005 73.752C111.664 74.8613 111.493 76.0987 111.493 77.464V117.144C111.493 120.045 110.512 122.435 108.549 124.312C106.672 126.104 103.856 127 100.101 127H92.293V77.208C92.293 72.1733 93.4023 68.5467 95.621 66.328C97.925 64.1093 101.466 63 106.245 63ZM163.278 72.6H156.366C153.721 72.6 152.227 73.0693 151.886 74.008C151.374 75.1173 151.118 76.696 151.118 78.744V111.256C151.118 111.427 151.118 111.939 151.118 112.792C151.118 113.645 151.203 114.371 151.374 114.968C151.715 116.589 153.379 117.4 156.366 117.4H163.278V127H150.862C147.619 127 144.974 126.872 142.926 126.616C140.878 126.275 139.086 125.592 137.55 124.568C136.014 123.544 134.862 122.435 134.094 121.24C133.326 119.96 132.686 117.955 132.174 115.224C131.577 111.384 131.278 106.008 131.278 99.096C131.278 92.184 131.321 87.5333 131.406 85.144C131.491 82.6693 131.619 80.0667 131.79 77.336C132.046 74.6053 132.43 72.6 132.942 71.32C133.539 70.04 134.265 68.76 135.118 67.48C136.057 66.1147 137.251 65.176 138.702 64.664C141.859 63.5547 145.913 63 150.862 63H163.278V72.6ZM192.078 126.104C192.078 126.701 191.907 127 191.566 127H181.07C176.291 127 172.75 125.891 170.446 123.672C168.227 121.453 167.118 117.827 167.118 112.792V63H172.366C177.742 63 181.411 64.28 183.374 66.84C185.337 69.3147 186.318 72.6 186.318 76.696V112.536C186.318 115.181 186.873 116.675 187.982 117.016C188.579 117.272 189.39 117.4 190.414 117.4H191.054C191.737 117.4 192.078 117.699 192.078 118.296V126.104ZM224.574 63H242.494C251.795 63 256.446 67.5653 256.446 76.696V127H241.854C240.489 127 239.379 126.531 238.526 125.592C237.673 124.653 237.246 123.416 237.246 121.88V76.44C237.246 75.0747 236.905 74.0933 236.222 73.496C235.625 72.8987 234.217 72.6 231.998 72.6H224.574V63ZM202.174 63H209.982C213.737 63 216.553 63.9387 218.43 65.816C220.393 67.608 221.374 69.9547 221.374 72.856V127H206.782C205.417 127 204.307 126.531 203.454 125.592C202.601 124.653 202.174 123.416 202.174 121.88V63ZM288.585 63V86.424C288.585 87.8747 288.798 88.8987 289.225 89.496C289.652 90.008 290.761 90.264 292.553 90.264H299.721V99.864H283.337C274.036 99.864 269.385 95.2987 269.385 86.168V77.208C269.385 71.576 270.793 67.8213 273.609 65.944C276.51 63.9813 281.502 63 288.585 63ZM288.841 106.776V113.56C288.841 115.011 289.054 116.035 289.481 116.632C289.908 117.144 291.017 117.4 292.809 117.4H299.721V127H283.593C274.292 127 269.641 122.435 269.641 113.304V109.464C269.641 108.184 269.769 107.459 270.025 107.288C270.366 107.117 270.58 107.032 270.665 107.032C270.75 106.947 270.964 106.904 271.305 106.904C271.732 106.819 271.988 106.776 272.073 106.776C277.705 106.776 283.294 106.776 288.841 106.776ZM303.561 90.264H308.809C318.11 90.264 322.761 94.8293 322.761 103.96V112.792C322.761 118.424 321.31 122.221 318.409 124.184C315.593 126.061 310.644 127 303.561 127V90.264ZM292.425 63H308.553C317.854 63 322.505 67.5653 322.505 76.696V83.352C316.788 83.352 312.436 83.352 309.449 83.352C306.462 83.352 304.926 83.352 304.841 83.352C304.756 83.2667 304.585 83.224 304.329 83.224C304.158 83.1387 304.03 83.0533 303.945 82.968C303.86 82.8827 303.774 82.7973 303.689 82.712C303.604 82.5413 303.561 82.3707 303.561 82.2C303.39 81.5173 303.305 81.0053 303.305 80.664V76.44C303.305 74.9893 303.092 74.008 302.665 73.496C302.238 72.8987 301.129 72.6 299.337 72.6H292.425V63ZM358.068 34.456H370.356C370.868 34.5413 371.124 34.8827 371.124 35.48V43.288C371.124 43.8853 370.783 44.184 370.1 44.184H364.852C361.268 44.184 359.476 45.7627 359.476 48.92V127H351.668C347.913 127 345.055 126.061 343.092 124.184C341.215 122.307 340.276 119.917 340.276 117.016V72.856H333.748C331.615 72.856 330.548 71.576 330.548 69.016V63H340.276V51.224C340.276 44.9947 341.684 40.6427 344.5 38.168C347.316 35.6933 351.839 34.456 358.068 34.456ZM371.252 63V69.016C371.252 71.576 370.185 72.856 368.052 72.856H362.292V63H371.252ZM403.083 63H415.499C418.742 63 421.387 63.1707 423.435 63.512C425.483 63.768 427.275 64.408 428.811 65.432C430.347 66.456 431.499 67.608 432.267 68.888C433.035 70.0827 433.632 72.0453 434.059 74.776C434.742 78.616 435.083 83.992 435.083 90.904C435.083 97.816 435.04 102.509 434.955 104.984C434.87 107.373 434.699 109.933 434.443 112.664C434.272 115.395 433.888 117.4 433.291 118.68C432.779 119.96 432.054 121.283 431.115 122.648C430.262 123.928 429.11 124.824 427.659 125.336C424.502 126.445 420.448 127 415.499 127H415.243V78.744C415.243 78.5733 415.243 78.0613 415.243 77.208C415.243 76.3547 415.2 75.6293 415.115 75.032C414.688 73.4107 412.982 72.6 409.995 72.6H403.083V63ZM399.243 63V111.256C399.243 111.427 399.243 111.939 399.243 112.792C399.243 113.645 399.328 114.371 399.499 114.968C399.84 116.589 401.504 117.4 404.491 117.4H411.403V127H398.987C395.744 127 393.099 126.872 391.051 126.616C389.003 126.275 387.211 125.592 385.675 124.568C384.139 123.544 382.987 122.435 382.219 121.24C381.451 119.96 380.811 117.955 380.299 115.224C379.702 111.384 379.403 106.008 379.403 99.096C379.403 92.184 379.446 87.5333 379.531 85.144C379.616 82.6693 379.744 80.0667 379.915 77.336C380.171 74.6053 380.555 72.6 381.067 71.32C381.664 70.04 382.39 68.76 383.243 67.48C384.182 66.1147 385.376 65.176 386.827 64.664C389.984 63.5547 394.038 63 398.987 63H399.243ZM462.745 63H478.105C478.617 63 478.873 63.2987 478.873 63.896V71.704C478.873 72.3013 478.532 72.6 477.849 72.6H472.089C470.041 72.6 468.846 72.984 468.505 73.752C468.164 74.8613 467.993 76.0987 467.993 77.464V117.144C467.993 120.045 467.012 122.435 465.049 124.312C463.172 126.104 460.356 127 456.601 127H448.793V77.208C448.793 72.1733 449.902 68.5467 452.121 66.328C454.425 64.1093 457.966 63 462.745 63ZM545.762 63H563.17C572.471 63 577.122 67.5653 577.122 76.696V127H562.53C561.165 127 560.055 126.531 559.202 125.592C558.349 124.653 557.922 123.416 557.922 121.88V76.44C557.922 75.0747 557.581 74.0933 556.898 73.496C556.301 72.8987 554.893 72.6 552.674 72.6H545.762V63ZM488.674 63H496.482C500.237 63 503.053 63.9387 504.93 65.816C506.893 67.608 507.874 69.9547 507.874 72.856V127H493.282C491.917 127 490.807 126.531 489.954 125.592C489.101 124.653 488.674 123.416 488.674 121.88V63ZM511.074 63H528.482C537.783 63 542.434 67.5653 542.434 76.696V127H527.842C526.477 127 525.367 126.531 524.514 125.592C523.661 124.653 523.234 123.416 523.234 121.88V76.44C523.234 75.0747 522.893 74.0933 522.21 73.496C521.613 72.8987 520.205 72.6 517.986 72.6H511.074V63ZM591.674 63.128H599.482C603.237 63.128 606.053 64.0667 607.93 65.944C609.893 67.736 610.874 70.0827 610.874 72.984V127H596.282C594.917 127 593.807 126.531 592.954 125.592C592.101 124.653 591.674 123.416 591.674 121.88V63.128ZM592.57 35.864C593.509 34.9253 596.239 34.456 600.762 34.456C605.285 34.456 608.015 34.9253 608.954 35.864C609.893 36.7173 610.362 39.2773 610.362 43.544C610.362 47.8107 609.85 50.4133 608.826 51.352C607.887 52.2907 605.199 52.76 600.762 52.76C596.325 52.76 593.594 52.2907 592.57 51.352C591.631 50.4133 591.162 47.8107 591.162 43.544C591.162 39.2773 591.631 36.7173 592.57 35.864ZM647.949 63H665.869C675.17 63 679.821 67.5653 679.821 76.696V127H665.229C663.864 127 662.754 126.531 661.901 125.592C661.048 124.653 660.621 123.416 660.621 121.88V76.44C660.621 75.0747 660.28 74.0933 659.597 73.496C659 72.8987 657.592 72.6 655.373 72.6H647.949V63ZM625.549 63H633.357C637.112 63 639.928 63.9387 641.805 65.816C643.768 67.608 644.749 69.9547 644.749 72.856V127H630.157C628.792 127 627.682 126.531 626.829 125.592C625.976 124.653 625.549 123.416 625.549 121.88V63ZM725.528 72.6H718.616C716.397 72.6 714.947 72.8987 714.264 73.496C713.667 74.0933 713.368 75.0747 713.368 76.44V113.688C713.368 114.968 713.667 115.907 714.264 116.504C714.947 117.101 716.397 117.4 718.616 117.4H725.528V127H713.112C709.869 127 707.224 126.872 705.176 126.616C703.128 126.275 701.336 125.592 699.8 124.568C698.264 123.544 697.112 122.435 696.344 121.24C695.576 119.96 694.936 117.955 694.424 115.224C693.827 111.384 693.528 106.008 693.528 99.096C693.528 92.184 693.571 87.5333 693.656 85.144C693.741 82.6693 693.869 80.0667 694.04 77.336C694.296 74.6053 694.68 72.6 695.192 71.32C695.789 70.04 696.515 68.76 697.368 67.48C698.307 66.1147 699.501 65.176 700.952 64.664C704.109 63.5547 708.163 63 713.112 63H725.528V72.6ZM714.648 135.192V141.976C714.648 143.427 714.861 144.408 715.288 144.92C715.715 145.517 716.824 145.816 718.616 145.816H725.528V155.416H709.4C700.099 155.416 695.448 150.851 695.448 141.72V137.88C695.448 136.6 695.576 135.875 695.832 135.704C696.173 135.533 696.387 135.405 696.472 135.32C696.557 135.32 696.771 135.277 697.112 135.192C697.539 135.192 697.837 135.192 698.008 135.192C703.555 135.192 709.101 135.192 714.648 135.192ZM729.368 63H737.176C740.931 63 743.747 63.9387 745.624 65.816C747.587 67.608 748.568 69.9547 748.568 72.856V145.688C748.568 148.589 747.587 150.936 745.624 152.728C743.747 154.605 740.931 155.544 737.176 155.544H729.368V63ZM35.568 283H22.128C19.2267 283 17.3067 282.531 16.368 281.592C15.5147 280.653 15.088 278.691 15.088 275.704V195.576C15.088 194.04 15.5147 192.803 16.368 191.864C17.2213 190.925 18.3307 190.456 19.696 190.456H35.568V283ZM40.688 190.456H56.944C65.0507 190.456 70.4267 192.376 73.072 196.216C75.8027 199.971 77.168 207.565 77.168 219C77.168 226.595 76.3147 232.525 74.608 236.792C72.9867 241.059 70.8107 243.917 68.08 245.368C65.3493 246.733 61.6373 247.416 56.944 247.416H40.688V235.256H50.16C52.3787 235.256 53.7867 234.957 54.384 234.36C55.0667 233.763 55.408 232.824 55.408 231.544V206.456C55.408 205.091 55.0667 204.109 54.384 203.512C53.7867 202.915 52.3787 202.616 50.16 202.616H40.688V190.456ZM88.543 219H103.135C104.5 219 105.61 219.469 106.463 220.408C107.316 221.347 107.743 222.584 107.743 224.12V269.56C107.743 270.925 108.042 271.907 108.639 272.504C109.322 273.101 110.772 273.4 112.991 273.4H120.415V283H102.495C93.1937 283 88.543 278.435 88.543 269.304V219ZM148.575 282.104C148.575 282.701 148.362 283 147.935 283H135.007C131.252 283 128.394 282.104 126.431 280.312C124.554 278.435 123.615 276.045 123.615 273.144V219H138.207C139.572 219 140.682 219.469 141.535 220.408C142.388 221.347 142.815 222.584 142.815 224.12V268.536C142.815 271.181 143.37 272.675 144.479 273.016C145.076 273.272 145.887 273.4 146.911 273.4H147.551C148.234 273.4 148.575 273.699 148.575 274.296V282.104ZM177.996 283H170.188C166.433 283 163.575 282.104 161.612 280.312C159.735 278.435 158.796 276.045 158.796 273.144V200.312C158.796 197.411 159.735 195.064 161.612 193.272C163.575 191.395 166.433 190.456 170.188 190.456H177.996V283ZM181.836 219H194.252C197.495 219 200.14 219.171 202.188 219.512C204.236 219.768 206.028 220.408 207.564 221.432C209.1 222.456 210.252 223.608 211.02 224.888C211.788 226.083 212.428 228.045 212.94 230.776C213.537 234.616 213.836 239.992 213.836 246.904C213.836 253.816 213.793 258.509 213.708 260.984C213.623 263.373 213.452 265.933 213.196 268.664C213.025 271.395 212.641 273.4 212.044 274.68C211.532 275.96 210.807 277.283 209.868 278.648C209.015 279.928 207.863 280.824 206.412 281.336C203.255 282.445 199.201 283 194.252 283H181.836V273.4H188.748C190.967 273.4 192.375 273.101 192.972 272.504C193.655 271.907 193.996 270.968 193.996 269.688V232.44C193.996 231.075 193.655 230.093 192.972 229.496C192.375 228.899 190.967 228.6 188.748 228.6H181.836V219ZM255.063 282.104C255.063 282.701 254.85 283 254.423 283H241.495C236.716 283 233.175 281.891 230.871 279.672C228.652 277.453 227.543 273.827 227.543 268.792V190.584H235.351C239.106 190.584 241.922 191.523 243.799 193.4C245.762 195.192 246.743 197.539 246.743 200.44V268.536C246.743 271.181 247.298 272.675 248.407 273.016C249.004 273.272 249.815 273.4 250.839 273.4H254.039C254.722 273.4 255.063 273.699 255.063 274.296V282.104ZM263.924 219.128H271.732C275.487 219.128 278.303 220.067 280.18 221.944C282.143 223.736 283.124 226.083 283.124 228.984V283H268.532C267.167 283 266.057 282.531 265.204 281.592C264.351 280.653 263.924 279.416 263.924 277.88V219.128ZM264.82 191.864C265.759 190.925 268.489 190.456 273.012 190.456C277.535 190.456 280.265 190.925 281.204 191.864C282.143 192.717 282.612 195.277 282.612 199.544C282.612 203.811 282.1 206.413 281.076 207.352C280.137 208.291 277.449 208.76 273.012 208.76C268.575 208.76 265.844 208.291 264.82 207.352C263.881 206.413 263.412 203.811 263.412 199.544C263.412 195.277 263.881 192.717 264.82 191.864ZM316.743 283H316.487C308.039 283 302.834 281.549 300.871 278.648C299.932 277.283 299.164 275.96 298.567 274.68C298.055 273.4 297.714 271.395 297.543 268.664C297.116 263.715 296.903 258.211 296.903 252.152C296.903 246.093 296.946 241.741 297.031 239.096C297.116 236.365 297.372 233.635 297.799 230.904C298.311 228.088 298.951 226.083 299.719 224.888C300.487 223.608 301.639 222.456 303.175 221.432C304.711 220.408 306.503 219.768 308.551 219.512C310.599 219.171 313.244 219 316.487 219H316.743V283ZM331.591 262.776C337.308 262.776 341.66 262.776 344.647 262.776C347.634 262.776 349.17 262.819 349.255 262.904C349.34 262.904 349.468 262.947 349.639 263.032C349.895 263.032 350.066 263.075 350.151 263.16C350.236 263.245 350.322 263.373 350.407 263.544C350.492 263.629 350.535 263.8 350.535 264.056C350.706 264.653 350.791 265.123 350.791 265.464V269.304C350.791 278.435 346.14 283 336.839 283H320.711V273.4H327.623C329.415 273.4 330.524 273.144 330.951 272.632C331.378 272.035 331.591 271.011 331.591 269.56V262.776ZM320.711 219H336.839C346.14 219 350.791 223.565 350.791 232.696V241.4C345.074 241.4 340.722 241.4 337.735 241.4C334.748 241.4 333.212 241.4 333.127 241.4C333.042 241.315 332.871 241.272 332.615 241.272C332.444 241.187 332.316 241.101 332.231 241.016C332.146 240.931 332.06 240.845 331.975 240.76C331.89 240.589 331.847 240.419 331.847 240.248C331.676 239.565 331.591 239.053 331.591 238.712V232.44C331.591 230.989 331.378 230.008 330.951 229.496C330.524 228.899 329.415 228.6 327.623 228.6H320.711V219ZM106.245 375H121.605C122.117 375 122.373 375.299 122.373 375.896V383.704C122.373 384.301 122.032 384.6 121.349 384.6H115.589C113.541 384.6 112.346 384.984 112.005 385.752C111.664 386.861 111.493 388.099 111.493 389.464V429.144C111.493 432.045 110.512 434.435 108.549 436.312C106.672 438.104 103.856 439 100.101 439H92.293V389.208C92.293 384.173 93.4023 380.547 95.621 378.328C97.925 376.109 101.466 375 106.245 375ZM163.278 384.6H156.366C153.721 384.6 152.227 385.069 151.886 386.008C151.374 387.117 151.118 388.696 151.118 390.744V423.256C151.118 423.427 151.118 423.939 151.118 424.792C151.118 425.645 151.203 426.371 151.374 426.968C151.715 428.589 153.379 429.4 156.366 429.4H163.278V439H150.862C147.619 439 144.974 438.872 142.926 438.616C140.878 438.275 139.086 437.592 137.55 436.568C136.014 435.544 134.862 434.435 134.094 433.24C133.326 431.96 132.686 429.955 132.174 427.224C131.577 423.384 131.278 418.008 131.278 411.096C131.278 404.184 131.321 399.533 131.406 397.144C131.491 394.669 131.619 392.067 131.79 389.336C132.046 386.605 132.43 384.6 132.942 383.32C133.539 382.04 134.265 380.76 135.118 379.48C136.057 378.115 137.251 377.176 138.702 376.664C141.859 375.555 145.913 375 150.862 375H163.278V384.6ZM192.078 438.104C192.078 438.701 191.907 439 191.566 439H181.07C176.291 439 172.75 437.891 170.446 435.672C168.227 433.453 167.118 429.827 167.118 424.792V375H172.366C177.742 375 181.411 376.28 183.374 378.84C185.337 381.315 186.318 384.6 186.318 388.696V424.536C186.318 427.181 186.873 428.675 187.982 429.016C188.579 429.272 189.39 429.4 190.414 429.4H191.054C191.737 429.4 192.078 429.699 192.078 430.296V438.104ZM224.574 375H242.494C251.795 375 256.446 379.565 256.446 388.696V439H241.854C240.489 439 239.379 438.531 238.526 437.592C237.673 436.653 237.246 435.416 237.246 433.88V388.44C237.246 387.075 236.905 386.093 236.222 385.496C235.625 384.899 234.217 384.6 231.998 384.6H224.574V375ZM202.174 375H209.982C213.737 375 216.553 375.939 218.43 377.816C220.393 379.608 221.374 381.955 221.374 384.856V439H206.782C205.417 439 204.307 438.531 203.454 437.592C202.601 436.653 202.174 435.416 202.174 433.88V375ZM288.585 375V398.424C288.585 399.875 288.798 400.899 289.225 401.496C289.652 402.008 290.761 402.264 292.553 402.264H299.721V411.864H283.337C274.036 411.864 269.385 407.299 269.385 398.168V389.208C269.385 383.576 270.793 379.821 273.609 377.944C276.51 375.981 281.502 375 288.585 375ZM288.841 418.776V425.56C288.841 427.011 289.054 428.035 289.481 428.632C289.908 429.144 291.017 429.4 292.809 429.4H299.721V439H283.593C274.292 439 269.641 434.435 269.641 425.304V421.464C269.641 420.184 269.769 419.459 270.025 419.288C270.366 419.117 270.58 419.032 270.665 419.032C270.75 418.947 270.964 418.904 271.305 418.904C271.732 418.819 271.988 418.776 272.073 418.776C277.705 418.776 283.294 418.776 288.841 418.776ZM303.561 402.264H308.809C318.11 402.264 322.761 406.829 322.761 415.96V424.792C322.761 430.424 321.31 434.221 318.409 436.184C315.593 438.061 310.644 439 303.561 439V402.264ZM292.425 375H308.553C317.854 375 322.505 379.565 322.505 388.696V395.352C316.788 395.352 312.436 395.352 309.449 395.352C306.462 395.352 304.926 395.352 304.841 395.352C304.756 395.267 304.585 395.224 304.329 395.224C304.158 395.139 304.03 395.053 303.945 394.968C303.86 394.883 303.774 394.797 303.689 394.712C303.604 394.541 303.561 394.371 303.561 394.2C303.39 393.517 303.305 393.005 303.305 392.664V388.44C303.305 386.989 303.092 386.008 302.665 385.496C302.238 384.899 301.129 384.6 299.337 384.6H292.425V375ZM358.836 375H371.252C379.7 375 384.905 376.451 386.868 379.352C387.807 380.717 388.532 382.04 389.044 383.32C389.641 384.6 390.025 386.605 390.196 389.336C390.623 394.285 390.836 399.789 390.836 405.848C390.836 411.907 390.793 416.301 390.708 419.032C390.623 421.677 390.324 424.408 389.812 427.224C389.385 429.955 388.788 431.96 388.02 433.24C387.252 434.435 386.1 435.544 384.564 436.568C383.028 437.592 381.236 438.275 379.188 438.616C377.14 438.872 374.495 439 371.252 439H358.836V429.4H365.748C367.967 429.4 369.375 429.101 369.972 428.504C370.655 427.907 370.996 426.968 370.996 425.688V388.44C370.996 387.075 370.655 386.093 369.972 385.496C369.375 384.899 367.967 384.6 365.748 384.6H358.836V375ZM354.996 467.544H347.188C343.433 467.544 340.575 466.605 338.612 464.728C336.735 462.936 335.796 460.589 335.796 457.688V384.856C335.796 381.955 336.735 379.608 338.612 377.816C340.575 375.939 343.433 375 347.188 375H354.996V467.544ZM427.583 375H439.999C443.242 375 445.887 375.171 447.935 375.512C449.983 375.768 451.775 376.408 453.311 377.432C454.847 378.456 455.999 379.608 456.767 380.888C457.535 382.083 458.132 384.045 458.559 386.776C459.242 390.616 459.583 395.992 459.583 402.904C459.583 409.816 459.54 414.509 459.455 416.984C459.37 419.373 459.199 421.933 458.943 424.664C458.772 427.395 458.388 429.4 457.791 430.68C457.279 431.96 456.554 433.283 455.615 434.648C454.762 435.928 453.61 436.824 452.159 437.336C449.002 438.445 444.948 439 439.999 439H439.743V390.744C439.743 390.573 439.743 390.061 439.743 389.208C439.743 388.355 439.7 387.629 439.615 387.032C439.188 385.411 437.482 384.6 434.495 384.6H427.583V375ZM423.743 375V423.256C423.743 423.427 423.743 423.939 423.743 424.792C423.743 425.645 423.828 426.371 423.999 426.968C424.34 428.589 426.004 429.4 428.991 429.4H435.903V439H423.487C420.244 439 417.599 438.872 415.551 438.616C413.503 438.275 411.711 437.592 410.175 436.568C408.639 435.544 407.487 434.435 406.719 433.24C405.951 431.96 405.311 429.955 404.799 427.224C404.202 423.384 403.903 418.008 403.903 411.096C403.903 404.184 403.946 399.533 404.031 397.144C404.116 394.669 404.244 392.067 404.415 389.336C404.671 386.605 405.055 384.6 405.567 383.32C406.164 382.04 406.89 380.76 407.743 379.48C408.682 378.115 409.876 377.176 411.327 376.664C414.484 375.555 418.538 375 423.487 375H423.743ZM487.245 375H502.605C503.117 375 503.373 375.299 503.373 375.896V383.704C503.373 384.301 503.032 384.6 502.349 384.6H496.589C494.541 384.6 493.346 384.984 493.005 385.752C492.664 386.861 492.493 388.099 492.493 389.464V429.144C492.493 432.045 491.512 434.435 489.549 436.312C487.672 438.104 484.856 439 481.101 439H473.293V389.208C473.293 384.173 474.402 380.547 476.621 378.328C478.925 376.109 482.466 375 487.245 375ZM545.686 437.976C545.686 438.488 545.43 438.829 544.918 439H535.19C528.961 439 524.438 437.763 521.622 435.288C518.806 432.813 517.398 428.461 517.398 422.232V384.856H510.87C508.737 384.856 507.67 383.576 507.67 381.016V375H517.398V346.456H525.206C528.961 346.456 531.777 347.395 533.654 349.272C535.617 351.149 536.598 353.539 536.598 356.44V424.536C536.598 427.693 538.39 429.272 541.974 429.272H544.662C545.345 429.272 545.686 429.571 545.686 430.168V437.976ZM549.654 375V381.016C549.654 383.576 548.587 384.856 546.454 384.856H539.798V375H549.654ZM589.153 384.6H582.241C579.596 384.6 578.102 385.069 577.761 386.008C577.249 387.117 576.993 388.696 576.993 390.744V423.256C576.993 423.427 576.993 423.939 576.993 424.792C576.993 425.645 577.078 426.371 577.249 426.968C577.59 428.589 579.254 429.4 582.241 429.4H589.153V439H576.737C573.494 439 570.849 438.872 568.801 438.616C566.753 438.275 564.961 437.592 563.425 436.568C561.889 435.544 560.737 434.435 559.969 433.24C559.201 431.96 558.561 429.955 558.049 427.224C557.452 423.384 557.153 418.008 557.153 411.096C557.153 404.184 557.196 399.533 557.281 397.144C557.366 394.669 557.494 392.067 557.665 389.336C557.921 386.605 558.305 384.6 558.817 383.32C559.414 382.04 560.14 380.76 560.993 379.48C561.932 378.115 563.126 377.176 564.577 376.664C567.734 375.555 571.788 375 576.737 375H589.153V384.6ZM617.953 438.104C617.953 438.701 617.782 439 617.441 439H606.945C602.166 439 598.625 437.891 596.321 435.672C594.102 433.453 592.993 429.827 592.993 424.792V375H598.241C603.617 375 607.286 376.28 609.249 378.84C611.212 381.315 612.193 384.6 612.193 388.696V424.536C612.193 427.181 612.748 428.675 613.857 429.016C614.454 429.272 615.265 429.4 616.289 429.4H616.929C617.612 429.4 617.953 429.699 617.953 430.296V438.104ZM660.561 437.976C660.561 438.488 660.305 438.829 659.793 439H650.065C643.836 439 639.313 437.763 636.497 435.288C633.681 432.813 632.273 428.461 632.273 422.232V384.856H625.745C623.612 384.856 622.545 383.576 622.545 381.016V375H632.273V346.456H640.081C643.836 346.456 646.652 347.395 648.529 349.272C650.492 351.149 651.473 353.539 651.473 356.44V424.536C651.473 427.693 653.265 429.272 656.849 429.272H659.537C660.22 429.272 660.561 429.571 660.561 430.168V437.976ZM664.529 375V381.016C664.529 383.576 663.462 384.856 661.329 384.856H654.673V375H664.529ZM672.924 375.128H680.732C684.487 375.128 687.303 376.067 689.18 377.944C691.143 379.736 692.124 382.083 692.124 384.984V439H677.532C676.167 439 675.057 438.531 674.204 437.592C673.351 436.653 672.924 435.416 672.924 433.88V375.128ZM673.82 347.864C674.759 346.925 677.489 346.456 682.012 346.456C686.535 346.456 689.265 346.925 690.204 347.864C691.143 348.717 691.612 351.277 691.612 355.544C691.612 359.811 691.1 362.413 690.076 363.352C689.137 364.291 686.449 364.76 682.012 364.76C677.575 364.76 674.844 364.291 673.82 363.352C672.881 362.413 672.412 359.811 672.412 355.544C672.412 351.277 672.881 348.717 673.82 347.864ZM729.583 375H741.999C745.242 375 747.887 375.171 749.935 375.512C751.983 375.768 753.775 376.408 755.311 377.432C756.847 378.456 757.999 379.608 758.767 380.888C759.535 382.083 760.132 384.045 760.559 386.776C761.242 390.616 761.583 395.992 761.583 402.904C761.583 409.816 761.54 414.509 761.455 416.984C761.37 419.373 761.199 421.933 760.943 424.664C760.772 427.395 760.388 429.4 759.791 430.68C759.279 431.96 758.554 433.283 757.615 434.648C756.762 435.928 755.61 436.824 754.159 437.336C751.002 438.445 746.948 439 741.999 439H741.743V390.744C741.743 390.573 741.743 390.061 741.743 389.208C741.743 388.355 741.7 387.629 741.615 387.032C741.188 385.411 739.482 384.6 736.495 384.6H729.583V375ZM725.743 375V423.256C725.743 423.427 725.743 423.939 725.743 424.792C725.743 425.645 725.828 426.371 725.999 426.968C726.34 428.589 728.004 429.4 730.991 429.4H737.903V439H725.487C722.244 439 719.599 438.872 717.551 438.616C715.503 438.275 713.711 437.592 712.175 436.568C710.639 435.544 709.487 434.435 708.719 433.24C707.951 431.96 707.311 429.955 706.799 427.224C706.202 423.384 705.903 418.008 705.903 411.096C705.903 404.184 705.946 399.533 706.031 397.144C706.116 394.669 706.244 392.067 706.415 389.336C706.671 386.605 707.055 384.6 707.567 383.32C708.164 382.04 708.89 380.76 709.743 379.48C710.682 378.115 711.876 377.176 713.327 376.664C716.484 375.555 720.538 375 725.487 375H725.743ZM797.949 375H815.869C825.17 375 829.821 379.565 829.821 388.696V439H815.229C813.864 439 812.754 438.531 811.901 437.592C811.048 436.653 810.621 435.416 810.621 433.88V388.44C810.621 387.075 810.28 386.093 809.597 385.496C809 384.899 807.592 384.6 805.373 384.6H797.949V375ZM775.549 375H783.357C787.112 375 789.928 375.939 791.805 377.816C793.768 379.608 794.749 381.955 794.749 384.856V439H780.157C778.792 439 777.682 438.531 776.829 437.592C775.976 436.653 775.549 435.416 775.549 433.88V375Z" fill="#113157"/>
</svg>
