<svg width="1252" height="597" viewBox="0 0 1252 597" fill="none" xmlns="http://www.w3.org/2000/svg">
<path d="M0 0H914L1252 597H0V0Z" fill="#DC9B50"/>
<path fill-rule="evenodd" clip-rule="evenodd" d="M42.5875 405.585C44.2582 414.319 42.0211 413.601 68.7982 413.999C91.2028 414.332 93.2949 414.527 100.259 416.929C109.717 420.189 116.019 424.838 120.464 431.829L123.963 437.335L124.386 470.085L124.809 502.835H131.906C135.81 502.835 139.735 502.295 140.63 501.635C142.714 500.097 142.88 447.318 140.83 437.835C137.929 424.409 127.244 412.737 112.569 406.964C100.602 402.257 89.5687 400.873 63.8512 400.852L41.6797 400.835L42.5875 405.585ZM47.8489 425.941C49.0995 433.731 49.3719 433.835 68.6424 433.835C81.2776 433.835 86.5064 434.226 89.585 435.401C97.0265 438.241 97.5414 440.698 97.5414 473.351V502.93L106.01 502.633L114.479 502.335V471.335C114.479 435.592 114.036 433.798 103.525 426.97C95.6227 421.836 89.5429 420.835 66.2658 420.835H47.0291L47.8489 425.941Z" fill="#113157"/>
<path fill-rule="evenodd" clip-rule="evenodd" d="M142.918 399.429C138.819 400.123 133.741 401.213 131.631 401.851L127.798 403.011L132.103 407.023C137.83 412.36 139.575 412.889 148.338 411.947C152.437 411.507 163.855 411.113 173.713 411.073C194.026 410.99 194.569 410.779 196.429 402.25L197.356 398L173.863 398.084C160.225 398.132 147.244 398.697 142.918 399.429ZM148.792 418.717L144.503 419.114L147.223 425.057L149.942 431L167.771 430.985C177.577 430.976 186.406 430.592 187.391 430.131C188.378 429.67 189.734 427.539 190.407 425.396C192.875 417.547 193.957 417.981 172.389 418.16C161.769 418.248 151.151 418.499 148.792 418.717Z" fill="#F7F7F7"/>
<path fill-rule="evenodd" clip-rule="evenodd" d="M42.5875 93.585C44.2582 102.319 42.0211 101.601 68.7982 101.999C91.2028 102.332 93.2949 102.527 100.259 104.929C109.717 108.189 116.019 112.838 120.464 119.829L123.963 125.335L124.386 158.085L124.809 190.835H131.906C135.81 190.835 139.735 190.295 140.63 189.635C142.714 188.097 142.88 135.318 140.83 125.835C137.929 112.409 127.244 100.737 112.569 94.964C100.602 90.257 89.5687 88.873 63.8512 88.852L41.6797 88.835L42.5875 93.585ZM47.8489 113.941C49.0995 121.731 49.3719 121.835 68.6424 121.835C81.2776 121.835 86.5064 122.226 89.585 123.401C97.0265 126.241 97.5414 128.698 97.5414 161.351V190.93L106.01 190.633L114.479 190.335V159.335C114.479 123.592 114.036 121.798 103.525 114.97C95.6227 109.836 89.5429 108.835 66.2658 108.835H47.0291L47.8489 113.941Z" fill="#113157"/>
<path fill-rule="evenodd" clip-rule="evenodd" d="M142.918 87.429C138.819 88.123 133.741 89.213 131.631 89.851L127.798 91.011L132.103 95.023C137.83 100.36 139.575 100.889 148.338 99.947C152.437 99.507 163.855 99.113 173.713 99.073C194.026 98.99 194.569 98.779 196.429 90.25L197.356 86L173.863 86.084C160.225 86.132 147.244 86.697 142.918 87.429ZM148.792 106.717L144.503 107.114L147.223 113.057L149.942 119L167.771 118.985C177.577 118.976 186.406 118.592 187.391 118.131C188.378 117.67 189.734 115.539 190.407 113.396C192.875 105.547 193.957 105.981 172.389 106.16C161.769 106.248 151.151 106.499 148.792 106.717Z" fill="#F7F7F7"/>
<path d="M167.055 127H182.415C182.927 127 183.183 127.299 183.183 127.896V135.704C183.183 136.301 182.841 136.6 182.159 136.6H176.399C174.351 136.6 173.156 136.984 172.815 137.752C172.473 138.861 172.303 140.099 172.303 141.464V181.144C172.303 184.045 171.321 186.435 169.359 188.312C167.481 190.104 164.665 191 160.911 191H153.103V141.208C153.103 136.173 154.212 132.547 156.431 130.328C158.735 128.109 162.276 127 167.055 127ZM224.088 136.6H217.176C214.53 136.6 213.037 137.069 212.696 138.008C212.184 139.117 211.928 140.696 211.928 142.744V175.256C211.928 175.427 211.928 175.939 211.928 176.792C211.928 177.645 212.013 178.371 212.184 178.968C212.525 180.589 214.189 181.4 217.176 181.4H224.088V191H211.672C208.429 191 205.784 190.872 203.736 190.616C201.688 190.275 199.896 189.592 198.36 188.568C196.824 187.544 195.672 186.435 194.904 185.24C194.136 183.96 193.496 181.955 192.984 179.224C192.386 175.384 192.088 170.008 192.088 163.096C192.088 156.184 192.13 151.533 192.216 149.144C192.301 146.669 192.429 144.067 192.6 141.336C192.856 138.605 193.24 136.6 193.752 135.32C194.349 134.04 195.074 132.76 195.928 131.48C196.866 130.115 198.061 129.176 199.512 128.664C202.669 127.555 206.722 127 211.672 127H224.088V136.6ZM252.888 190.104C252.888 190.701 252.717 191 252.376 191H241.88C237.101 191 233.56 189.891 231.256 187.672C229.037 185.453 227.928 181.827 227.928 176.792V127H233.176C238.552 127 242.221 128.28 244.184 130.84C246.146 133.315 247.128 136.6 247.128 140.696V176.536C247.128 179.181 247.682 180.675 248.792 181.016C249.389 181.272 250.2 181.4 251.224 181.4H251.864C252.546 181.4 252.888 181.699 252.888 182.296V190.104ZM285.384 127H303.304C312.605 127 317.256 131.565 317.256 140.696V191H302.664C301.298 191 300.189 190.531 299.336 189.592C298.482 188.653 298.056 187.416 298.056 185.88V140.44C298.056 139.075 297.714 138.093 297.032 137.496C296.434 136.899 295.026 136.6 292.808 136.6H285.384V127ZM262.984 127H270.792C274.546 127 277.362 127.939 279.24 129.816C281.202 131.608 282.184 133.955 282.184 136.856V191H267.592C266.226 191 265.117 190.531 264.264 189.592C263.41 188.653 262.984 187.416 262.984 185.88V127ZM349.395 127V150.424C349.395 151.875 349.608 152.899 350.035 153.496C350.461 154.008 351.571 154.264 353.363 154.264H360.531V163.864H344.147C334.845 163.864 330.195 159.299 330.195 150.168V141.208C330.195 135.576 331.603 131.821 334.419 129.944C337.32 127.981 342.312 127 349.395 127ZM349.651 170.776V177.56C349.651 179.011 349.864 180.035 350.291 180.632C350.717 181.144 351.827 181.4 353.619 181.4H360.531V191H344.403C335.101 191 330.451 186.435 330.451 177.304V173.464C330.451 172.184 330.579 171.459 330.835 171.288C331.176 171.117 331.389 171.032 331.475 171.032C331.56 170.947 331.773 170.904 332.115 170.904C332.541 170.819 332.797 170.776 332.883 170.776C338.515 170.776 344.104 170.776 349.651 170.776ZM364.371 154.264H369.619C378.92 154.264 383.571 158.829 383.571 167.96V176.792C383.571 182.424 382.12 186.221 379.219 188.184C376.403 190.061 371.453 191 364.371 191V154.264ZM353.235 127H369.363C378.664 127 383.315 131.565 383.315 140.696V147.352C377.597 147.352 373.245 147.352 370.259 147.352C367.272 147.352 365.736 147.352 365.651 147.352C365.565 147.267 365.395 147.224 365.139 147.224C364.968 147.139 364.84 147.053 364.755 146.968C364.669 146.883 364.584 146.797 364.499 146.712C364.413 146.541 364.371 146.371 364.371 146.2C364.2 145.517 364.115 145.005 364.115 144.664V140.44C364.115 138.989 363.901 138.008 363.475 137.496C363.048 136.899 361.939 136.6 360.147 136.6H353.235V127ZM418.878 98.456H431.166C431.678 98.5413 431.934 98.8827 431.934 99.48V107.288C431.934 107.885 431.592 108.184 430.91 108.184H425.662C422.078 108.184 420.286 109.763 420.286 112.92V191H412.478C408.723 191 405.864 190.061 403.902 188.184C402.024 186.307 401.086 183.917 401.086 181.016V136.856H394.558C392.424 136.856 391.358 135.576 391.358 133.016V127H401.086V115.224C401.086 108.995 402.494 104.643 405.31 102.168C408.126 99.6933 412.648 98.456 418.878 98.456ZM432.062 127V133.016C432.062 135.576 430.995 136.856 428.862 136.856H423.102V127H432.062ZM463.893 127H476.309C479.551 127 482.197 127.171 484.245 127.512C486.293 127.768 488.085 128.408 489.621 129.432C491.157 130.456 492.309 131.608 493.077 132.888C493.845 134.083 494.442 136.045 494.869 138.776C495.551 142.616 495.893 147.992 495.893 154.904C495.893 161.816 495.85 166.509 495.765 168.984C495.679 171.373 495.509 173.933 495.253 176.664C495.082 179.395 494.698 181.4 494.101 182.68C493.589 183.96 492.863 185.283 491.925 186.648C491.071 187.928 489.919 188.824 488.469 189.336C485.311 190.445 481.258 191 476.309 191H476.053V142.744C476.053 142.573 476.053 142.061 476.053 141.208C476.053 140.355 476.01 139.629 475.925 139.032C475.498 137.411 473.791 136.6 470.805 136.6H463.893V127ZM460.053 127V175.256C460.053 175.427 460.053 175.939 460.053 176.792C460.053 177.645 460.138 178.371 460.309 178.968C460.65 180.589 462.314 181.4 465.301 181.4H472.213V191H459.797C456.554 191 453.909 190.872 451.861 190.616C449.813 190.275 448.021 189.592 446.485 188.568C444.949 187.544 443.797 186.435 443.029 185.24C442.261 183.96 441.621 181.955 441.109 179.224C440.511 175.384 440.213 170.008 440.213 163.096C440.213 156.184 440.255 151.533 440.341 149.144C440.426 146.669 440.554 144.067 440.725 141.336C440.981 138.605 441.365 136.6 441.877 135.32C442.474 134.04 443.199 132.76 444.053 131.48C444.991 130.115 446.186 129.176 447.637 128.664C450.794 127.555 454.847 127 459.797 127H460.053ZM523.555 127H538.915C539.427 127 539.683 127.299 539.683 127.896V135.704C539.683 136.301 539.341 136.6 538.659 136.6H532.899C530.851 136.6 529.656 136.984 529.315 137.752C528.973 138.861 528.803 140.099 528.803 141.464V181.144C528.803 184.045 527.821 186.435 525.859 188.312C523.981 190.104 521.165 191 517.411 191H509.603V141.208C509.603 136.173 510.712 132.547 512.931 130.328C515.235 128.109 518.776 127 523.555 127ZM606.572 127H623.98C633.281 127 637.932 131.565 637.932 140.696V191H623.34C621.974 191 620.865 190.531 620.012 189.592C619.158 188.653 618.732 187.416 618.732 185.88V140.44C618.732 139.075 618.39 138.093 617.708 137.496C617.11 136.899 615.702 136.6 613.484 136.6H606.572V127ZM549.484 127H557.292C561.046 127 563.862 127.939 565.74 129.816C567.702 131.608 568.684 133.955 568.684 136.856V191H554.092C552.726 191 551.617 190.531 550.764 189.592C549.91 188.653 549.484 187.416 549.484 185.88V127ZM571.884 127H589.292C598.593 127 603.244 131.565 603.244 140.696V191H588.652C587.286 191 586.177 190.531 585.324 189.592C584.47 188.653 584.044 187.416 584.044 185.88V140.44C584.044 139.075 583.702 138.093 583.02 137.496C582.422 136.899 581.014 136.6 578.796 136.6H571.884V127ZM652.484 127.128H660.292C664.046 127.128 666.862 128.067 668.74 129.944C670.702 131.736 671.684 134.083 671.684 136.984V191H657.092C655.726 191 654.617 190.531 653.764 189.592C652.91 188.653 652.484 187.416 652.484 185.88V127.128ZM653.38 99.864C654.318 98.9253 657.049 98.456 661.572 98.456C666.094 98.456 668.825 98.9253 669.764 99.864C670.702 100.717 671.172 103.277 671.172 107.544C671.172 111.811 670.66 114.413 669.636 115.352C668.697 116.291 666.009 116.76 661.572 116.76C657.134 116.76 654.404 116.291 653.38 115.352C652.441 114.413 651.972 111.811 651.972 107.544C651.972 103.277 652.441 100.717 653.38 99.864ZM708.759 127H726.679C735.98 127 740.631 131.565 740.631 140.696V191H726.039C724.673 191 723.564 190.531 722.711 189.592C721.857 188.653 721.431 187.416 721.431 185.88V140.44C721.431 139.075 721.089 138.093 720.407 137.496C719.809 136.899 718.401 136.6 716.183 136.6H708.759V127ZM686.359 127H694.167C697.921 127 700.737 127.939 702.615 129.816C704.577 131.608 705.559 133.955 705.559 136.856V191H690.967C689.601 191 688.492 190.531 687.639 189.592C686.785 188.653 686.359 187.416 686.359 185.88V127ZM786.338 136.6H779.426C777.207 136.6 775.756 136.899 775.074 137.496C774.476 138.093 774.178 139.075 774.178 140.44V177.688C774.178 178.968 774.476 179.907 775.074 180.504C775.756 181.101 777.207 181.4 779.426 181.4H786.338V191H773.922C770.679 191 768.034 190.872 765.986 190.616C763.938 190.275 762.146 189.592 760.61 188.568C759.074 187.544 757.922 186.435 757.154 185.24C756.386 183.96 755.746 181.955 755.234 179.224C754.636 175.384 754.338 170.008 754.338 163.096C754.338 156.184 754.38 151.533 754.466 149.144C754.551 146.669 754.679 144.067 754.85 141.336C755.106 138.605 755.49 136.6 756.002 135.32C756.599 134.04 757.324 132.76 758.178 131.48C759.116 130.115 760.311 129.176 761.762 128.664C764.919 127.555 768.972 127 773.922 127H786.338V136.6ZM775.458 199.192V205.976C775.458 207.427 775.671 208.408 776.098 208.92C776.524 209.517 777.634 209.816 779.426 209.816H786.338V219.416H770.21C760.908 219.416 756.258 214.851 756.258 205.72V201.88C756.258 200.6 756.386 199.875 756.642 199.704C756.983 199.533 757.196 199.405 757.282 199.32C757.367 199.32 757.58 199.277 757.922 199.192C758.348 199.192 758.647 199.192 758.818 199.192C764.364 199.192 769.911 199.192 775.458 199.192ZM790.178 127H797.986C801.74 127 804.556 127.939 806.434 129.816C808.396 131.608 809.378 133.955 809.378 136.856V209.688C809.378 212.589 808.396 214.936 806.434 216.728C804.556 218.605 801.74 219.544 797.986 219.544H790.178V127ZM96.3776 347H82.9376C80.0362 347 78.1162 346.531 77.1776 345.592C76.3242 344.653 75.8976 342.691 75.8976 339.704V259.576C75.8976 258.04 76.3242 256.803 77.1776 255.864C78.0309 254.925 79.1402 254.456 80.5056 254.456H96.3776V347ZM101.498 254.456H117.754C125.86 254.456 131.236 256.376 133.882 260.216C136.612 263.971 137.978 271.565 137.978 283C137.978 290.595 137.124 296.525 135.418 300.792C133.796 305.059 131.62 307.917 128.89 309.368C126.159 310.733 122.447 311.416 117.754 311.416H101.498V299.256H110.97C113.188 299.256 114.596 298.957 115.194 298.36C115.876 297.763 116.218 296.824 116.218 295.544V270.456C116.218 269.091 115.876 268.109 115.194 267.512C114.596 266.915 113.188 266.616 110.97 266.616H101.498V254.456ZM149.353 283H163.945C165.31 283 166.419 283.469 167.273 284.408C168.126 285.347 168.553 286.584 168.553 288.12V333.56C168.553 334.925 168.851 335.907 169.449 336.504C170.131 337.101 171.582 337.4 173.801 337.4H181.225V347H163.305C154.003 347 149.353 342.435 149.353 333.304V283ZM209.385 346.104C209.385 346.701 209.171 347 208.745 347H195.817C192.062 347 189.203 346.104 187.241 344.312C185.363 342.435 184.425 340.045 184.425 337.144V283H199.017C200.382 283 201.491 283.469 202.345 284.408C203.198 285.347 203.625 286.584 203.625 288.12V332.536C203.625 335.181 204.179 336.675 205.289 337.016C205.886 337.272 206.697 337.4 207.721 337.4H208.361C209.043 337.4 209.385 337.699 209.385 338.296V346.104ZM238.806 347H230.998C227.243 347 224.384 346.104 222.422 344.312C220.544 342.435 219.606 340.045 219.606 337.144V264.312C219.606 261.411 220.544 259.064 222.422 257.272C224.384 255.395 227.243 254.456 230.998 254.456H238.806V347ZM242.646 283H255.062C258.304 283 260.95 283.171 262.998 283.512C265.046 283.768 266.838 284.408 268.374 285.432C269.91 286.456 271.062 287.608 271.83 288.888C272.598 290.083 273.238 292.045 273.75 294.776C274.347 298.616 274.646 303.992 274.646 310.904C274.646 317.816 274.603 322.509 274.518 324.984C274.432 327.373 274.262 329.933 274.006 332.664C273.835 335.395 273.451 337.4 272.854 338.68C272.342 339.96 271.616 341.283 270.678 342.648C269.824 343.928 268.672 344.824 267.222 345.336C264.064 346.445 260.011 347 255.062 347H242.646V337.4H249.558C251.776 337.4 253.184 337.101 253.782 336.504C254.464 335.907 254.806 334.968 254.806 333.688V296.44C254.806 295.075 254.464 294.093 253.782 293.496C253.184 292.899 251.776 292.6 249.558 292.6H242.646V283ZM315.873 346.104C315.873 346.701 315.659 347 315.233 347H302.305C297.526 347 293.985 345.891 291.681 343.672C289.462 341.453 288.353 337.827 288.353 332.792V254.584H296.161C299.915 254.584 302.731 255.523 304.609 257.4C306.571 259.192 307.553 261.539 307.553 264.44V332.536C307.553 335.181 308.107 336.675 309.217 337.016C309.814 337.272 310.625 337.4 311.649 337.4H314.849C315.531 337.4 315.873 337.699 315.873 338.296V346.104ZM324.734 283.128H332.542C336.296 283.128 339.112 284.067 340.99 285.944C342.952 287.736 343.934 290.083 343.934 292.984V347H329.342C327.976 347 326.867 346.531 326.014 345.592C325.16 344.653 324.734 343.416 324.734 341.88V283.128ZM325.63 255.864C326.568 254.925 329.299 254.456 333.822 254.456C338.344 254.456 341.075 254.925 342.014 255.864C342.952 256.717 343.422 259.277 343.422 263.544C343.422 267.811 342.91 270.413 341.886 271.352C340.947 272.291 338.259 272.76 333.822 272.76C329.384 272.76 326.654 272.291 325.63 271.352C324.691 270.413 324.222 267.811 324.222 263.544C324.222 259.277 324.691 256.717 325.63 255.864ZM377.553 347H377.297C368.849 347 363.643 345.549 361.681 342.648C360.742 341.283 359.974 339.96 359.377 338.68C358.865 337.4 358.523 335.395 358.353 332.664C357.926 327.715 357.713 322.211 357.713 316.152C357.713 310.093 357.755 305.741 357.841 303.096C357.926 300.365 358.182 297.635 358.609 294.904C359.121 292.088 359.761 290.083 360.529 288.888C361.297 287.608 362.449 286.456 363.985 285.432C365.521 284.408 367.313 283.768 369.361 283.512C371.409 283.171 374.054 283 377.297 283H377.553V347ZM392.401 326.776C398.118 326.776 402.47 326.776 405.457 326.776C408.443 326.776 409.979 326.819 410.065 326.904C410.15 326.904 410.278 326.947 410.449 327.032C410.705 327.032 410.875 327.075 410.961 327.16C411.046 327.245 411.131 327.373 411.217 327.544C411.302 327.629 411.345 327.8 411.345 328.056C411.515 328.653 411.601 329.123 411.601 329.464V333.304C411.601 342.435 406.95 347 397.649 347H381.521V337.4H388.433C390.225 337.4 391.334 337.144 391.761 336.632C392.187 336.035 392.401 335.011 392.401 333.56V326.776ZM381.521 283H397.649C406.95 283 411.601 287.565 411.601 296.696V305.4C405.883 305.4 401.531 305.4 398.545 305.4C395.558 305.4 394.022 305.4 393.937 305.4C393.851 305.315 393.681 305.272 393.425 305.272C393.254 305.187 393.126 305.101 393.041 305.016C392.955 304.931 392.87 304.845 392.785 304.76C392.699 304.589 392.657 304.419 392.657 304.248C392.486 303.565 392.401 303.053 392.401 302.712V296.44C392.401 294.989 392.187 294.008 391.761 293.496C391.334 292.899 390.225 292.6 388.433 292.6H381.521V283ZM167.055 439H182.415C182.927 439 183.183 439.299 183.183 439.896V447.704C183.183 448.301 182.841 448.6 182.159 448.6H176.399C174.351 448.6 173.156 448.984 172.815 449.752C172.473 450.861 172.303 452.099 172.303 453.464V493.144C172.303 496.045 171.321 498.435 169.359 500.312C167.481 502.104 164.665 503 160.911 503H153.103V453.208C153.103 448.173 154.212 444.547 156.431 442.328C158.735 440.109 162.276 439 167.055 439ZM224.088 448.6H217.176C214.53 448.6 213.037 449.069 212.696 450.008C212.184 451.117 211.928 452.696 211.928 454.744V487.256C211.928 487.427 211.928 487.939 211.928 488.792C211.928 489.645 212.013 490.371 212.184 490.968C212.525 492.589 214.189 493.4 217.176 493.4H224.088V503H211.672C208.429 503 205.784 502.872 203.736 502.616C201.688 502.275 199.896 501.592 198.36 500.568C196.824 499.544 195.672 498.435 194.904 497.24C194.136 495.96 193.496 493.955 192.984 491.224C192.386 487.384 192.088 482.008 192.088 475.096C192.088 468.184 192.13 463.533 192.216 461.144C192.301 458.669 192.429 456.067 192.6 453.336C192.856 450.605 193.24 448.6 193.752 447.32C194.349 446.04 195.074 444.76 195.928 443.48C196.866 442.115 198.061 441.176 199.512 440.664C202.669 439.555 206.722 439 211.672 439H224.088V448.6ZM252.888 502.104C252.888 502.701 252.717 503 252.376 503H241.88C237.101 503 233.56 501.891 231.256 499.672C229.037 497.453 227.928 493.827 227.928 488.792V439H233.176C238.552 439 242.221 440.28 244.184 442.84C246.146 445.315 247.128 448.6 247.128 452.696V488.536C247.128 491.181 247.682 492.675 248.792 493.016C249.389 493.272 250.2 493.4 251.224 493.4H251.864C252.546 493.4 252.888 493.699 252.888 494.296V502.104ZM285.384 439H303.304C312.605 439 317.256 443.565 317.256 452.696V503H302.664C301.298 503 300.189 502.531 299.336 501.592C298.482 500.653 298.056 499.416 298.056 497.88V452.44C298.056 451.075 297.714 450.093 297.032 449.496C296.434 448.899 295.026 448.6 292.808 448.6H285.384V439ZM262.984 439H270.792C274.546 439 277.362 439.939 279.24 441.816C281.202 443.608 282.184 445.955 282.184 448.856V503H267.592C266.226 503 265.117 502.531 264.264 501.592C263.41 500.653 262.984 499.416 262.984 497.88V439ZM349.395 439V462.424C349.395 463.875 349.608 464.899 350.035 465.496C350.461 466.008 351.571 466.264 353.363 466.264H360.531V475.864H344.147C334.845 475.864 330.195 471.299 330.195 462.168V453.208C330.195 447.576 331.603 443.821 334.419 441.944C337.32 439.981 342.312 439 349.395 439ZM349.651 482.776V489.56C349.651 491.011 349.864 492.035 350.291 492.632C350.717 493.144 351.827 493.4 353.619 493.4H360.531V503H344.403C335.101 503 330.451 498.435 330.451 489.304V485.464C330.451 484.184 330.579 483.459 330.835 483.288C331.176 483.117 331.389 483.032 331.475 483.032C331.56 482.947 331.773 482.904 332.115 482.904C332.541 482.819 332.797 482.776 332.883 482.776C338.515 482.776 344.104 482.776 349.651 482.776ZM364.371 466.264H369.619C378.92 466.264 383.571 470.829 383.571 479.96V488.792C383.571 494.424 382.12 498.221 379.219 500.184C376.403 502.061 371.453 503 364.371 503V466.264ZM353.235 439H369.363C378.664 439 383.315 443.565 383.315 452.696V459.352C377.597 459.352 373.245 459.352 370.259 459.352C367.272 459.352 365.736 459.352 365.651 459.352C365.565 459.267 365.395 459.224 365.139 459.224C364.968 459.139 364.84 459.053 364.755 458.968C364.669 458.883 364.584 458.797 364.499 458.712C364.413 458.541 364.371 458.371 364.371 458.2C364.2 457.517 364.115 457.005 364.115 456.664V452.44C364.115 450.989 363.901 450.008 363.475 449.496C363.048 448.899 361.939 448.6 360.147 448.6H353.235V439ZM419.646 439H432.062C440.51 439 445.715 440.451 447.678 443.352C448.616 444.717 449.342 446.04 449.854 447.32C450.451 448.6 450.835 450.605 451.006 453.336C451.432 458.285 451.646 463.789 451.646 469.848C451.646 475.907 451.603 480.301 451.518 483.032C451.432 485.677 451.134 488.408 450.622 491.224C450.195 493.955 449.598 495.96 448.83 497.24C448.062 498.435 446.91 499.544 445.374 500.568C443.838 501.592 442.046 502.275 439.998 502.616C437.95 502.872 435.304 503 432.062 503H419.646V493.4H426.558C428.776 493.4 430.184 493.101 430.782 492.504C431.464 491.907 431.806 490.968 431.806 489.688V452.44C431.806 451.075 431.464 450.093 430.782 449.496C430.184 448.899 428.776 448.6 426.558 448.6H419.646V439ZM415.806 531.544H407.998C404.243 531.544 401.384 530.605 399.422 528.728C397.544 526.936 396.606 524.589 396.606 521.688V448.856C396.606 445.955 397.544 443.608 399.422 441.816C401.384 439.939 404.243 439 407.998 439H415.806V531.544ZM488.393 439H500.809C504.051 439 506.697 439.171 508.745 439.512C510.793 439.768 512.585 440.408 514.121 441.432C515.657 442.456 516.809 443.608 517.577 444.888C518.345 446.083 518.942 448.045 519.369 450.776C520.051 454.616 520.393 459.992 520.393 466.904C520.393 473.816 520.35 478.509 520.265 480.984C520.179 483.373 520.009 485.933 519.753 488.664C519.582 491.395 519.198 493.4 518.601 494.68C518.089 495.96 517.363 497.283 516.425 498.648C515.571 499.928 514.419 500.824 512.969 501.336C509.811 502.445 505.758 503 500.809 503H500.553V454.744C500.553 454.573 500.553 454.061 500.553 453.208C500.553 452.355 500.51 451.629 500.425 451.032C499.998 449.411 498.291 448.6 495.305 448.6H488.393V439ZM484.553 439V487.256C484.553 487.427 484.553 487.939 484.553 488.792C484.553 489.645 484.638 490.371 484.809 490.968C485.15 492.589 486.814 493.4 489.801 493.4H496.713V503H484.297C481.054 503 478.409 502.872 476.361 502.616C474.313 502.275 472.521 501.592 470.985 500.568C469.449 499.544 468.297 498.435 467.529 497.24C466.761 495.96 466.121 493.955 465.609 491.224C465.011 487.384 464.713 482.008 464.713 475.096C464.713 468.184 464.755 463.533 464.841 461.144C464.926 458.669 465.054 456.067 465.225 453.336C465.481 450.605 465.865 448.6 466.377 447.32C466.974 446.04 467.699 444.76 468.553 443.48C469.491 442.115 470.686 441.176 472.137 440.664C475.294 439.555 479.347 439 484.297 439H484.553ZM548.055 439H563.415C563.927 439 564.183 439.299 564.183 439.896V447.704C564.183 448.301 563.841 448.6 563.159 448.6H557.399C555.351 448.6 554.156 448.984 553.815 449.752C553.473 450.861 553.303 452.099 553.303 453.464V493.144C553.303 496.045 552.321 498.435 550.359 500.312C548.481 502.104 545.665 503 541.911 503H534.103V453.208C534.103 448.173 535.212 444.547 537.431 442.328C539.735 440.109 543.276 439 548.055 439ZM606.496 501.976C606.496 502.488 606.24 502.829 605.728 503H596C589.77 503 585.248 501.763 582.432 499.288C579.616 496.813 578.208 492.461 578.208 486.232V448.856H571.68C569.546 448.856 568.48 447.576 568.48 445.016V439H578.208V410.456H586.016C589.77 410.456 592.586 411.395 594.464 413.272C596.426 415.149 597.408 417.539 597.408 420.44V488.536C597.408 491.693 599.2 493.272 602.784 493.272H605.472C606.154 493.272 606.496 493.571 606.496 494.168V501.976ZM610.464 439V445.016C610.464 447.576 609.397 448.856 607.264 448.856H600.608V439H610.464ZM649.963 448.6H643.051C640.405 448.6 638.912 449.069 638.571 450.008C638.059 451.117 637.803 452.696 637.803 454.744V487.256C637.803 487.427 637.803 487.939 637.803 488.792C637.803 489.645 637.888 490.371 638.059 490.968C638.4 492.589 640.064 493.4 643.051 493.4H649.963V503H637.547C634.304 503 631.659 502.872 629.611 502.616C627.563 502.275 625.771 501.592 624.235 500.568C622.699 499.544 621.547 498.435 620.779 497.24C620.011 495.96 619.371 493.955 618.859 491.224C618.261 487.384 617.963 482.008 617.963 475.096C617.963 468.184 618.005 463.533 618.091 461.144C618.176 458.669 618.304 456.067 618.475 453.336C618.731 450.605 619.115 448.6 619.627 447.32C620.224 446.04 620.949 444.76 621.803 443.48C622.741 442.115 623.936 441.176 625.387 440.664C628.544 439.555 632.597 439 637.547 439H649.963V448.6ZM678.763 502.104C678.763 502.701 678.592 503 678.251 503H667.755C662.976 503 659.435 501.891 657.131 499.672C654.912 497.453 653.803 493.827 653.803 488.792V439H659.051C664.427 439 668.096 440.28 670.059 442.84C672.021 445.315 673.003 448.6 673.003 452.696V488.536C673.003 491.181 673.557 492.675 674.667 493.016C675.264 493.272 676.075 493.4 677.099 493.4H677.739C678.421 493.4 678.763 493.699 678.763 494.296V502.104ZM721.371 501.976C721.371 502.488 721.115 502.829 720.603 503H710.875C704.645 503 700.123 501.763 697.307 499.288C694.491 496.813 693.083 492.461 693.083 486.232V448.856H686.555C684.421 448.856 683.355 447.576 683.355 445.016V439H693.083V410.456H700.891C704.645 410.456 707.461 411.395 709.339 413.272C711.301 415.149 712.283 417.539 712.283 420.44V488.536C712.283 491.693 714.075 493.272 717.659 493.272H720.347C721.029 493.272 721.371 493.571 721.371 494.168V501.976ZM725.339 439V445.016C725.339 447.576 724.272 448.856 722.139 448.856H715.483V439H725.339ZM733.734 439.128H741.542C745.296 439.128 748.112 440.067 749.99 441.944C751.952 443.736 752.934 446.083 752.934 448.984V503H738.342C736.976 503 735.867 502.531 735.014 501.592C734.16 500.653 733.734 499.416 733.734 497.88V439.128ZM734.63 411.864C735.568 410.925 738.299 410.456 742.822 410.456C747.344 410.456 750.075 410.925 751.014 411.864C751.952 412.717 752.422 415.277 752.422 419.544C752.422 423.811 751.91 426.413 750.886 427.352C749.947 428.291 747.259 428.76 742.822 428.76C738.384 428.76 735.654 428.291 734.63 427.352C733.691 426.413 733.222 423.811 733.222 419.544C733.222 415.277 733.691 412.717 734.63 411.864ZM790.393 439H802.809C806.051 439 808.697 439.171 810.745 439.512C812.793 439.768 814.585 440.408 816.121 441.432C817.657 442.456 818.809 443.608 819.577 444.888C820.345 446.083 820.942 448.045 821.369 450.776C822.051 454.616 822.393 459.992 822.393 466.904C822.393 473.816 822.35 478.509 822.265 480.984C822.179 483.373 822.009 485.933 821.753 488.664C821.582 491.395 821.198 493.4 820.601 494.68C820.089 495.96 819.363 497.283 818.425 498.648C817.571 499.928 816.419 500.824 814.969 501.336C811.811 502.445 807.758 503 802.809 503H802.553V454.744C802.553 454.573 802.553 454.061 802.553 453.208C802.553 452.355 802.51 451.629 802.425 451.032C801.998 449.411 800.291 448.6 797.305 448.6H790.393V439ZM786.553 439V487.256C786.553 487.427 786.553 487.939 786.553 488.792C786.553 489.645 786.638 490.371 786.809 490.968C787.15 492.589 788.814 493.4 791.801 493.4H798.713V503H786.297C783.054 503 780.409 502.872 778.361 502.616C776.313 502.275 774.521 501.592 772.985 500.568C771.449 499.544 770.297 498.435 769.529 497.24C768.761 495.96 768.121 493.955 767.609 491.224C767.011 487.384 766.713 482.008 766.713 475.096C766.713 468.184 766.755 463.533 766.841 461.144C766.926 458.669 767.054 456.067 767.225 453.336C767.481 450.605 767.865 448.6 768.377 447.32C768.974 446.04 769.699 444.76 770.553 443.48C771.491 442.115 772.686 441.176 774.137 440.664C777.294 439.555 781.347 439 786.297 439H786.553ZM858.759 439H876.679C885.98 439 890.631 443.565 890.631 452.696V503H876.039C874.673 503 873.564 502.531 872.711 501.592C871.857 500.653 871.431 499.416 871.431 497.88V452.44C871.431 451.075 871.089 450.093 870.407 449.496C869.809 448.899 868.401 448.6 866.183 448.6H858.759V439ZM836.359 439H844.167C847.921 439 850.737 439.939 852.615 441.816C854.577 443.608 855.559 445.955 855.559 448.856V503H840.967C839.601 503 838.492 502.531 837.639 501.592C836.785 500.653 836.359 499.416 836.359 497.88V439Z" fill="#113157"/>
</svg>
