<svg width="406" height="168" viewBox="0 0 406 168" fill="none" xmlns="http://www.w3.org/2000/svg">
<path fill-rule="evenodd" clip-rule="evenodd" d="M145.142 165.545C144.857 164.582 144.136 163.046 143.632 161.546L141.619 156.071H137.733C130.738 156.067 122.135 155.599 118.615 155.033C106.12 153.018 97.4675 146.365 93.4439 135.679C91.4417 130.361 91.3099 128.141 91.3099 99.6413C91.3099 82.9377 91.0352 68.5593 90.6991 67.6895C90.2896 66.6299 92.2502 67.1077 84.7373 67.1077C77.2244 67.1077 79.2482 63.5767 79.2482 98.9545C79.2603 132.134 79.6848 136.197 84.0103 144.583C86.9754 150.332 93.8162 157.697 98.9918 160.71C108.111 166.019 113.957 167.076 134.228 167.076C144.639 167.076 145.621 167.166 145.142 165.545ZM139.103 143.052C137.091 135.902 136.588 135.902 132.786 135.902C117.836 135.426 114.87 134.49 112.594 129.527C111.799 127.793 111.433 117.55 111.433 97.0511L111.433 67.1077H105.345H99.2554L99.5593 99.3474L99.8621 131.587L102.571 136.164C104.06 138.682 107.229 142.056 109.614 143.661C113.933 146.572 114.007 146.583 131.363 146.897H139.606L139.103 143.052Z" fill="#F7F7F7"/>
<path fill-rule="evenodd" clip-rule="evenodd" d="M0.67 24.5852C1.903 33.3192 0.252001 32.6012 20.014 32.9992C36.549 33.3322 38.093 33.5272 43.233 35.9292C50.213 39.1892 54.864 43.8382 58.144 50.8292L60.727 56.3352L61.039 89.0852L61.351 121.835H66.589C69.47 121.835 72.367 121.295 73.027 120.635C74.565 119.097 74.688 66.3182 73.175 56.8352C71.034 43.4092 63.148 31.7372 52.318 25.9642C43.486 21.2572 35.343 19.8732 16.363 19.8522L0 19.8352L0.67 24.5852ZM4.553 44.9412C5.476 52.7312 5.677 52.8352 19.899 52.8352C29.224 52.8352 33.083 53.2262 35.355 54.4012C40.847 57.2412 41.227 59.6982 41.227 92.3512V121.93L47.477 121.633L53.727 121.335V90.3352C53.727 54.5922 53.4 52.7982 45.643 45.9702C39.811 40.8362 35.324 39.8352 18.145 39.8352H3.948L4.553 44.9412Z" fill="#F7F7F7"/>
<path fill-rule="evenodd" clip-rule="evenodd" d="M74.7161 18.4291C71.6911 19.1231 67.9431 20.2131 66.3861 20.8511L63.5571 22.0111L66.7341 26.0231C70.9611 31.3601 72.2491 31.8891 78.7161 30.9471C81.7411 30.5071 90.1681 30.1131 97.4431 30.0731C112.435 29.9901 112.835 29.7791 114.208 21.2501L114.892 17.0001L97.5541 17.0841C87.4891 17.1321 77.9091 17.6971 74.7161 18.4291ZM79.0511 37.7171L75.8861 38.1141L77.8931 44.0571L79.9001 50.0001L93.0581 49.9851C100.295 49.9761 106.811 49.5921 107.538 49.1311C108.266 48.6701 109.267 46.5391 109.764 44.3961C111.585 36.5471 112.384 36.9811 96.4661 37.1601C88.6281 37.2481 80.7921 37.4991 79.0511 37.7171Z" fill="#FCDE39"/>
<path d="M145.79 89H136.34C134.3 89 132.95 88.67 132.29 88.01C131.69 87.35 131.39 85.97 131.39 83.87V27.53C131.39 26.45 131.69 25.58 132.29 24.92C132.89 24.26 133.67 23.93 134.63 23.93H145.79V89ZM149.39 23.93H160.82C164.3 23.93 167.03 24.2 169.01 24.74C171.05 25.28 172.58 26.36 173.6 27.98C174.62 29.54 175.25 31.31 175.49 33.29C175.79 35.21 175.94 37.94 175.94 41.48C175.94 45.02 175.79 47.72 175.49 49.58C175.25 51.44 174.62 53.18 173.6 54.8C172.64 56.42 171.11 57.56 169.01 58.22C166.97 58.88 164.24 59.21 160.82 59.21H149.39V50.66H156.05C157.61 50.66 158.6 50.45 159.02 50.03C159.5 49.61 159.74 48.95 159.74 48.05V35.18C159.74 34.22 159.5 33.53 159.02 33.11C158.6 32.69 157.61 32.48 156.05 32.48H149.39V23.93ZM158.03 62H169.19C170.99 62 172.28 62.51 173.06 63.53C173.84 64.49 174.23 66.08 174.23 68.3V89H161.27C160.31 89 159.53 88.67 158.93 88.01C158.33 87.35 158.03 86.48 158.03 85.4V62ZM201.513 89H192.063C190.023 89 188.673 88.67 188.013 88.01C187.413 87.35 187.113 85.97 187.113 83.87V29.06C187.113 26.96 187.413 25.58 188.013 24.92C188.673 24.26 190.023 23.93 192.063 23.93H201.513V89ZM228.759 89H219.309C217.269 89 215.919 88.67 215.259 88.01C214.659 87.35 214.359 85.97 214.359 83.87V27.53C214.359 26.45 214.659 25.58 215.259 24.92C215.859 24.26 216.639 23.93 217.599 23.93H228.759V89ZM232.359 23.93H243.789C249.489 23.93 253.269 25.28 255.129 27.98C257.049 30.62 258.009 35.96 258.009 44C258.009 49.34 257.409 53.51 256.209 56.51C255.069 59.51 253.539 61.52 251.619 62.54C249.699 63.5 247.089 63.98 243.789 63.98H232.359V55.43H239.019C240.579 55.43 241.569 55.22 241.989 54.8C242.469 54.38 242.709 53.72 242.709 52.82V35.18C242.709 34.22 242.469 33.53 241.989 33.11C241.569 32.69 240.579 32.48 239.019 32.48H232.359V23.93ZM282.837 23.93V77.84C282.837 78.74 283.047 79.4 283.467 79.82C283.947 80.24 284.967 80.45 286.527 80.45H293.187V89H281.757C279.357 89 277.347 88.82 275.727 88.46C274.167 88.1 272.787 87.38 271.587 86.3C270.447 85.16 269.547 83.9 268.887 82.52C268.287 81.14 267.807 79.07 267.447 76.31C266.907 72.17 266.637 66.62 266.637 59.66C266.637 52.64 266.667 47.69 266.727 44.81C266.847 41.93 267.087 39.14 267.447 36.44C267.807 33.68 268.287 31.64 268.887 30.32C269.547 28.94 270.447 27.71 271.587 26.63C272.787 25.49 274.167 24.77 275.727 24.47C277.347 24.11 279.357 23.93 281.757 23.93H282.837ZM286.437 24.02H297.867C300.267 24.02 302.247 24.2 303.807 24.56C305.427 24.92 306.807 25.67 307.947 26.81C309.147 27.89 310.047 29.12 310.647 30.5C311.307 31.88 311.817 33.95 312.177 36.71C312.717 40.85 312.987 46.43 312.987 53.45C312.987 60.41 312.927 65.33 312.807 68.21C312.747 71.09 312.537 73.91 312.177 76.67C311.817 79.37 311.307 81.41 310.647 82.79C310.047 84.11 309.147 85.34 307.947 86.48C306.807 87.56 305.427 88.28 303.807 88.64C302.247 88.94 300.267 89.09 297.867 89.09H296.787V35.18C296.787 34.28 296.547 33.62 296.067 33.2C295.647 32.78 294.657 32.57 293.097 32.57H286.437V24.02ZM353.273 69.38H365.873C366.533 69.38 366.863 69.8 366.863 70.64V86.48C366.863 88.16 366.023 89 364.343 89H342.563V80.45H350.933C351.893 80.45 352.373 80.36 352.373 80.18C352.433 79.94 352.463 79.67 352.463 79.37V70.37C352.463 69.89 352.523 69.62 352.643 69.56C352.763 69.44 352.973 69.38 353.273 69.38ZM339.413 89H329.963C327.923 89 326.573 88.67 325.913 88.01C325.313 87.35 325.013 85.97 325.013 83.87V29.06C325.013 26.96 325.313 25.58 325.913 24.92C326.573 24.26 327.923 23.93 329.963 23.93H339.413V89ZM389.686 89H380.236C378.196 89 376.846 88.67 376.186 88.01C375.586 87.35 375.286 85.97 375.286 83.87V29.06C375.286 26.96 375.586 25.58 376.186 24.92C376.846 24.26 378.196 23.93 380.236 23.93H389.686V89Z" fill="#F7F7F7"/>
<path d="M169.79 167H160.34C158.3 167 156.95 166.67 156.29 166.01C155.69 165.35 155.39 163.97 155.39 161.87V107.06C155.39 104.96 155.69 103.58 156.29 102.92C156.95 102.26 158.3 101.93 160.34 101.93H169.79V167ZM232.046 101.93V161.87C232.046 163.97 231.716 165.35 231.056 166.01C230.456 166.67 229.136 167 227.096 167H214.316C210.776 167 208.436 166.46 207.296 165.38C206.216 164.3 205.256 161.51 204.416 157.01C202.736 148.13 200.306 133.79 197.126 113.99C196.886 112.49 196.526 111.53 196.046 111.11C195.626 110.69 194.876 110.45 193.796 110.39H182.726V101.93H202.256C203.756 101.93 204.956 102.11 205.856 102.47C206.756 102.83 207.476 103.61 208.016 104.81C208.616 105.95 209.006 107.06 209.186 108.14C209.426 109.22 209.666 110.48 209.906 111.92C210.206 113.66 210.626 116.21 211.166 119.57C212.186 126.35 213.776 135.92 215.936 148.28C216.776 153.56 217.346 156.53 217.646 157.19C218.006 157.79 218.606 158.15 219.446 158.27V105.53C219.446 104.45 219.746 103.58 220.346 102.92C220.946 102.26 221.726 101.93 222.686 101.93H232.046ZM182.726 113.54H192.086C193.046 113.54 193.826 113.87 194.426 114.53C195.026 115.19 195.326 116.06 195.326 117.14V161.87C195.326 163.91 195.056 165.29 194.516 166.01C193.976 166.67 192.896 167 191.276 167H182.726V113.54ZM244.951 101.93H254.401C256.441 101.93 257.761 102.26 258.361 102.92C259.021 103.58 259.351 104.96 259.351 107.06V167H249.901C247.861 167 246.511 166.67 245.851 166.01C245.251 165.35 244.951 163.97 244.951 161.87V101.93ZM269.071 140.09H279.331C281.131 140.09 282.421 140.6 283.201 141.62C283.981 142.58 284.371 144.17 284.371 146.39V167H272.311C271.351 167 270.571 166.67 269.971 166.01C269.371 165.35 269.071 164.48 269.071 163.4V140.09ZM269.341 101.93H279.691C281.431 101.93 282.541 102.26 283.021 102.92C283.501 103.58 283.741 104.96 283.741 107.06V126.14C283.741 129.74 283.081 132.44 281.761 134.24C280.501 135.98 277.921 136.85 274.021 136.85H262.951V128.3H266.911C267.991 128.3 268.651 128.12 268.891 127.76C269.191 127.34 269.341 126.65 269.341 125.69V101.93ZM310.679 167H301.229C299.189 167 297.839 166.67 297.179 166.01C296.579 165.35 296.279 163.97 296.279 161.87V107.06C296.279 104.96 296.579 103.58 297.179 102.92C297.839 102.26 299.189 101.93 301.229 101.93H310.679V167ZM338.489 154.4V162.05C338.489 164.09 338.159 165.44 337.499 166.1C336.839 166.7 335.459 167 333.359 167H314.279V154.4H338.489ZM333.089 127.85V133.25C333.089 135.41 332.879 136.79 332.459 137.39C332.039 137.93 330.839 138.2 328.859 138.2H314.279V127.85H333.089ZM337.589 101.93V109.58C337.589 111.62 337.259 112.97 336.599 113.63C335.939 114.23 334.559 114.53 332.459 114.53H314.279V101.93H337.589ZM391.148 134.33L391.238 149.54C391.238 156.68 390.338 161.39 388.538 163.67C386.738 165.89 383.468 167 378.728 167H365.498V158.45H372.158C373.658 158.45 374.648 158.27 375.128 157.91C375.608 157.55 375.848 156.86 375.848 155.84V113.18C375.848 112.1 375.608 111.38 375.128 111.02C374.648 110.66 373.658 110.48 372.158 110.48H365.498V101.93H379.628C384.008 101.93 387.038 102.95 388.718 104.99C390.458 106.97 391.328 110.87 391.328 116.69L391.148 134.33ZM362.798 167.09H353.348C351.368 167.09 350.048 166.76 349.388 166.1C348.728 165.38 348.398 164 348.398 161.96V107.06C348.398 105.02 348.728 103.67 349.388 103.01C350.048 102.29 351.368 101.93 353.348 101.93H362.798V167.09Z" fill="#F7F7F7"/>
</svg>
