<svg width="35" height="43" viewBox="0 0 35 43" fill="none" xmlns="http://www.w3.org/2000/svg">
<path d="M6.22528 37.0751H1.86719V13.0911C1.87119 12.0326 2.17912 11.0191 2.72407 10.2706C3.26902 9.52216 4.00699 9.09925 4.77766 9.09375H26.111C26.76 9.09551 27.3899 9.39512 27.9007 9.94495C28.4114 10.4948 28.7738 11.2633 28.93 12.1284L30.911 23.0949L33.8672 25.5017V37.0751H29.5091" stroke="#204E66" stroke-width="2" stroke-miterlimit="10"/>
<path d="M23.6754 37.0781H12.0625" stroke="#204E66" stroke-width="2" stroke-miterlimit="10"/>
<path d="M26.5751 41.0919C28.1785 41.0919 29.4783 39.2927 29.4783 37.0733C29.4783 34.8539 28.1785 33.0547 26.5751 33.0547C24.9717 33.0547 23.6719 34.8539 23.6719 37.0733C23.6719 39.2927 24.9717 41.0919 26.5751 41.0919Z" stroke="#204E66" stroke-width="2" stroke-miterlimit="10"/>
<path d="M9.16104 41.0919C10.7644 41.0919 12.0643 39.2927 12.0643 37.0733C12.0643 34.8539 10.7644 33.0547 9.16104 33.0547C7.55763 33.0547 6.25781 34.8539 6.25781 37.0733C6.25781 39.2927 7.55763 41.0919 9.16104 41.0919Z" stroke="#204E66" stroke-width="2" stroke-miterlimit="10"/>
<path d="M7.25781 23.0859H31.2578" stroke="#204E66" stroke-width="2" stroke-miterlimit="10"/>
<path d="M23.6719 14.1953V23.1953" stroke="#204E66" stroke-width="2" stroke-miterlimit="10"/>
<path d="M16.4453 14.1953V23.1953" stroke="#204E66" stroke-width="2" stroke-miterlimit="10"/>
<path d="M8.09375 14.1953V23.1953" stroke="#204E66" stroke-width="2" stroke-miterlimit="10"/>
<path d="M30.8984 31.125H33.8662" stroke="#204E66" stroke-width="2" stroke-miterlimit="10"/>
<path d="M25.9783 5.3182C28.7983 5.49028 31.3417 6.58922 31.8906 8.98438" stroke="#204E66"/>
<path d="M26.6672 2.93982C29.6168 2.88039 32.6408 4.1376 34.125 7.40625" stroke="#204E66"/>
</svg>
