<svg width="155" height="160" viewBox="0 0 155 160" fill="none" xmlns="http://www.w3.org/2000/svg">
<path d="M0 0H155V160H0V0Z" fill="#F7F7F7"/>
<path fill-rule="evenodd" clip-rule="evenodd" d="M150.142 153.545C149.857 152.582 149.136 151.045 148.632 149.546L146.619 144.071H142.733C135.738 144.067 127.135 143.599 123.615 143.032C111.12 141.018 102.467 134.365 98.4439 123.679C96.4417 118.361 96.3099 116.141 96.3099 87.6411C96.3099 70.9374 96.0352 56.559 95.6991 55.6893C95.2896 54.6296 97.2502 55.1075 89.7373 55.1075C82.2244 55.1075 84.2482 51.5764 84.2482 86.9543C84.2603 120.134 84.6848 124.196 89.0103 132.583C91.9754 138.332 98.8162 145.696 103.992 148.71C113.111 154.019 118.957 155.075 139.228 155.075C149.639 155.075 150.621 155.166 150.142 153.545ZM144.103 131.052C142.091 123.901 141.588 123.901 137.786 123.901C122.836 123.426 119.87 122.49 117.594 117.527C116.799 115.793 116.433 105.549 116.433 85.0509L116.433 55.1075H110.345H104.255L104.559 87.3472L104.862 119.587L107.571 124.163C109.06 126.682 112.229 130.056 114.614 131.661C118.933 134.572 119.007 134.583 136.363 134.897H144.606L144.103 131.052Z" fill="#133157"/>
<path fill-rule="evenodd" clip-rule="evenodd" d="M5.67 12.5851C6.903 21.3191 5.252 20.6011 25.014 20.9991C41.549 21.3321 43.093 21.5271 48.233 23.9291C55.213 27.1891 59.864 31.8381 63.144 38.8291L65.727 44.3351L66.039 77.0851L66.351 109.835H71.589C74.47 109.835 77.367 109.295 78.027 108.635C79.565 107.097 79.688 54.3181 78.175 44.8351C76.034 31.4091 68.148 19.7371 57.318 13.9641C48.486 9.25708 40.343 7.87308 21.363 7.85208L5 7.83508L5.67 12.5851ZM9.553 32.9411C10.476 40.7311 10.677 40.8351 24.899 40.8351C34.224 40.8351 38.083 41.2261 40.355 42.4011C45.847 45.2411 46.227 47.6981 46.227 80.3511V109.93L52.477 109.633L58.727 109.335V78.3351C58.727 42.5921 58.4 40.7981 50.643 33.9701C44.811 28.8361 40.324 27.8351 23.145 27.8351H8.948L9.553 32.9411Z" fill="#113157"/>
<path fill-rule="evenodd" clip-rule="evenodd" d="M79.7161 6.429C76.6911 7.123 72.9431 8.213 71.3861 8.851L68.5571 10.011L71.7341 14.023C75.9611 19.36 77.2491 19.889 83.7161 18.947C86.7411 18.507 95.1681 18.113 102.443 18.073C117.435 17.99 117.835 17.779 119.208 9.25L119.892 5L102.554 5.084C92.4891 5.132 82.9091 5.697 79.7161 6.429ZM84.0511 25.717L80.8861 26.114L82.8931 32.057L84.9001 38L98.0581 37.985C105.295 37.976 111.811 37.592 112.538 37.131C113.266 36.67 114.267 34.539 114.764 32.396C116.585 24.547 117.384 24.981 101.466 25.16C93.6281 25.248 85.7921 25.499 84.0511 25.717Z" fill="#FCDE39"/>
</svg>
