<svg width="34" height="40" viewBox="0 0 34 40" fill="none" xmlns="http://www.w3.org/2000/svg">
<path d="M1 19.504C1 16.4005 1 14.8488 1.62734 13.4848C2.25468 12.1208 3.43284 11.111 5.78915 9.0913L8.07486 7.13212C12.3339 3.48154 14.4634 1.65625 17 1.65625C19.5366 1.65625 21.6661 3.48154 25.9251 7.13212L28.2109 9.0913C30.5672 11.111 31.7453 12.1208 32.3727 13.4848C33 14.8488 33 16.4005 33 19.504V29.1963C33 33.5063 33 35.6613 31.6611 37.0002C30.3221 38.3391 28.1671 38.3391 23.8571 38.3391H10.1429C5.83287 38.3391 3.67788 38.3391 2.33894 37.0002C1 35.6613 1 33.5063 1 29.1963V19.504Z" stroke="#FCDA23" stroke-width="2"/>
<path d="M22.7176 38.3393V25.625C22.7176 25.0727 22.2699 24.625 21.7176 24.625H12.2891C11.7368 24.625 11.2891 25.0727 11.2891 25.625V38.3393" stroke="#FCDA23" stroke-width="2" stroke-linecap="round" stroke-linejoin="round"/>
</svg>
