<svg width="146" height="151" viewBox="0 0 146 151" fill="none" xmlns="http://www.w3.org/2000/svg">
<path fill-rule="evenodd" clip-rule="evenodd" d="M145.142 148.545C144.857 147.582 144.136 146.045 143.632 144.546L141.619 139.071H137.733C130.738 139.067 122.135 138.599 118.615 138.032C106.12 136.018 97.4675 129.365 93.4439 118.679C91.4417 113.361 91.3099 111.141 91.3099 82.6411C91.3099 65.9374 91.0352 51.559 90.6991 50.6893C90.2896 49.6296 92.2502 50.1075 84.7373 50.1075C77.2244 50.1075 79.2482 46.5764 79.2482 81.9543C79.2603 115.134 79.6848 119.196 84.0103 127.583C86.9754 133.332 93.8162 140.696 98.9918 143.71C108.111 149.019 113.957 150.075 134.228 150.075C144.639 150.075 145.621 150.166 145.142 148.545ZM139.103 126.052C137.091 118.901 136.588 118.901 132.786 118.901C117.836 118.426 114.87 117.49 112.594 112.527C111.799 110.793 111.433 100.549 111.433 80.0509L111.433 50.1075H105.345H99.2554L99.5593 82.3472L99.8621 114.587L102.571 119.163C104.06 121.682 107.229 125.056 109.614 126.661C113.933 129.572 114.007 129.583 131.363 129.897H139.606L139.103 126.052Z" fill="#133157"/>
<path fill-rule="evenodd" clip-rule="evenodd" d="M0.67 7.58509C1.903 16.3191 0.252001 15.6011 20.014 15.9991C36.549 16.3321 38.093 16.5271 43.233 18.9291C50.213 22.1891 54.864 26.8381 58.144 33.8291L60.727 39.3351L61.039 72.0851L61.351 104.835H66.589C69.47 104.835 72.367 104.295 73.027 103.635C74.565 102.097 74.688 49.3181 73.175 39.8351C71.034 26.4091 63.148 14.7371 52.318 8.96408C43.486 4.25708 35.343 2.87308 16.363 2.85208L0 2.83508L0.67 7.58509ZM4.553 27.9411C5.476 35.7311 5.677 35.8351 19.899 35.8351C29.224 35.8351 33.083 36.2261 35.355 37.4011C40.847 40.2411 41.227 42.6981 41.227 75.3511V104.93L47.477 104.633L53.727 104.335V73.3351C53.727 37.5921 53.4 35.7981 45.643 28.9701C39.811 23.8361 35.324 22.8351 18.145 22.8351H3.948L4.553 27.9411Z" fill="#113157"/>
<path fill-rule="evenodd" clip-rule="evenodd" d="M74.7161 1.429C71.6911 2.123 67.9431 3.213 66.3861 3.851L63.5571 5.011L66.7341 9.023C70.9611 14.36 72.2491 14.889 78.7161 13.947C81.7411 13.507 90.1681 13.113 97.4431 13.073C112.435 12.99 112.835 12.779 114.208 4.25L114.892 0L97.5541 0.0839996C87.4891 0.132 77.9091 0.697 74.7161 1.429ZM79.0511 20.717L75.8861 21.114L77.8931 27.057L79.9001 33L93.0581 32.985C100.295 32.976 106.811 32.592 107.538 32.131C108.266 31.67 109.267 29.539 109.764 27.396C111.585 19.547 112.384 19.981 96.4661 20.16C88.6281 20.248 80.7921 20.499 79.0511 20.717Z" fill="#D68527"/>
</svg>
