<svg width="407" height="168" viewBox="0 0 407 168" fill="none" xmlns="http://www.w3.org/2000/svg">
<path fill-rule="evenodd" clip-rule="evenodd" d="M146.138 165.544C145.853 164.582 145.132 163.045 144.628 161.546L142.615 156.071H138.729C131.734 156.067 123.131 155.599 119.611 155.032C107.116 153.018 98.4636 146.365 94.44 135.678C92.4378 130.361 92.306 128.141 92.306 99.6408C92.306 82.9372 92.0313 68.5588 91.6952 67.689C91.2857 66.6294 93.2463 67.1072 85.7334 67.1072C78.2205 67.1072 80.2443 63.5762 80.2443 98.954C80.2563 132.133 80.6809 136.196 85.0064 144.582C87.9715 150.332 94.8123 157.696 99.9879 160.709C109.107 166.019 114.953 167.075 135.224 167.075C145.635 167.075 146.617 167.166 146.138 165.544ZM140.099 143.052C138.087 135.901 137.584 135.901 133.782 135.901C118.832 135.425 115.866 134.49 113.59 129.526C112.795 127.793 112.429 117.549 112.429 97.0507L112.429 67.1072H106.341H100.252L100.555 99.3469L100.858 131.587L103.567 136.163C105.056 138.681 108.225 142.055 110.61 143.661C114.929 146.572 115.003 146.583 132.359 146.897H140.602L140.099 143.052Z" fill="#133157"/>
<path fill-rule="evenodd" clip-rule="evenodd" d="M1.66609 24.5847C2.89909 33.3187 1.24809 32.6007 21.0101 32.9987C37.5451 33.3317 39.0891 33.5267 44.2291 35.9287C51.2091 39.1887 55.8601 43.8377 59.1401 50.8287L61.7231 56.3347L62.0351 89.0847L62.3471 121.835H67.5851C70.4661 121.835 73.3631 121.295 74.0231 120.635C75.5611 119.097 75.6841 66.3177 74.1711 56.8347C72.0301 43.4087 64.1441 31.7367 53.3141 25.9637C44.4821 21.2567 36.3391 19.8727 17.3591 19.8517L0.996094 19.8347L1.66609 24.5847ZM5.54909 44.9407C6.47209 52.7307 6.6731 52.8347 20.8951 52.8347C30.2201 52.8347 34.0791 53.2257 36.3511 54.4007C41.8431 57.2407 42.2231 59.6977 42.2231 92.3507V121.93L48.4731 121.633L54.7231 121.335V90.3347C54.7231 54.5917 54.3961 52.7977 46.6391 45.9697C40.8071 40.8357 36.3201 39.8347 19.1411 39.8347H4.94409L5.54909 44.9407Z" fill="#113157"/>
<path fill-rule="evenodd" clip-rule="evenodd" d="M75.7122 18.4286C72.6872 19.1226 68.9392 20.2126 67.3822 20.8506L64.5532 22.0106L67.7302 26.0226C71.9572 31.3596 73.2452 31.8886 79.7122 30.9466C82.7372 30.5066 91.1642 30.1126 98.4392 30.0726C113.431 29.9896 113.831 29.7786 115.204 21.2496L115.888 16.9996L98.5502 17.0836C88.4852 17.1316 78.9052 17.6966 75.7122 18.4286ZM80.0472 37.7166L76.8822 38.1136L78.8892 44.0566L80.8962 49.9996L94.0542 49.9846C101.291 49.9756 107.807 49.5916 108.534 49.1306C109.262 48.6696 110.263 46.5386 110.76 44.3956C112.581 36.5466 113.38 36.9806 97.4622 37.1596C89.6242 37.2476 81.7882 37.4986 80.0472 37.7166Z" fill="#FCDE39"/>
<path d="M146.786 88.9995H137.336C135.296 88.9995 133.946 88.6695 133.286 88.0095C132.686 87.3495 132.386 85.9695 132.386 83.8695V27.5295C132.386 26.4495 132.686 25.5795 133.286 24.9195C133.886 24.2595 134.666 23.9295 135.626 23.9295H146.786V88.9995ZM150.386 23.9295H161.816C165.296 23.9295 168.026 24.1995 170.006 24.7395C172.046 25.2795 173.576 26.3595 174.596 27.9795C175.616 29.5395 176.246 31.3095 176.486 33.2895C176.786 35.2095 176.936 37.9395 176.936 41.4795C176.936 45.0195 176.786 47.7195 176.486 49.5795C176.246 51.4395 175.616 53.1795 174.596 54.7995C173.636 56.4195 172.106 57.5595 170.006 58.2195C167.966 58.8795 165.236 59.2095 161.816 59.2095H150.386V50.6595H157.046C158.606 50.6595 159.596 50.4495 160.016 50.0295C160.496 49.6095 160.736 48.9495 160.736 48.0495V35.1795C160.736 34.2195 160.496 33.5295 160.016 33.1095C159.596 32.6895 158.606 32.4795 157.046 32.4795H150.386V23.9295ZM159.026 61.9995H170.186C171.986 61.9995 173.276 62.5095 174.056 63.5295C174.836 64.4895 175.226 66.0795 175.226 68.2995V88.9995H162.266C161.306 88.9995 160.526 88.6695 159.926 88.0095C159.326 87.3495 159.026 86.4795 159.026 85.3995V61.9995ZM202.509 88.9995H193.059C191.019 88.9995 189.669 88.6695 189.009 88.0095C188.409 87.3495 188.109 85.9695 188.109 83.8695V29.0595C188.109 26.9595 188.409 25.5795 189.009 24.9195C189.669 24.2595 191.019 23.9295 193.059 23.9295H202.509V88.9995ZM229.755 88.9995H220.305C218.265 88.9995 216.915 88.6695 216.255 88.0095C215.655 87.3495 215.355 85.9695 215.355 83.8695V27.5295C215.355 26.4495 215.655 25.5795 216.255 24.9195C216.855 24.2595 217.635 23.9295 218.595 23.9295H229.755V88.9995ZM233.355 23.9295H244.785C250.485 23.9295 254.265 25.2795 256.125 27.9795C258.045 30.6195 259.005 35.9595 259.005 43.9995C259.005 49.3395 258.405 53.5095 257.205 56.5095C256.065 59.5095 254.535 61.5195 252.615 62.5395C250.695 63.4995 248.085 63.9795 244.785 63.9795H233.355V55.4295H240.015C241.575 55.4295 242.565 55.2195 242.985 54.7995C243.465 54.3795 243.705 53.7195 243.705 52.8195V35.1795C243.705 34.2195 243.465 33.5295 242.985 33.1095C242.565 32.6895 241.575 32.4795 240.015 32.4795H233.355V23.9295ZM283.833 23.9295V77.8395C283.833 78.7395 284.043 79.3995 284.463 79.8195C284.943 80.2395 285.963 80.4495 287.523 80.4495H294.183V88.9995H282.753C280.353 88.9995 278.343 88.8195 276.723 88.4595C275.163 88.0995 273.783 87.3795 272.583 86.2995C271.443 85.1595 270.543 83.8995 269.883 82.5195C269.283 81.1395 268.803 79.0695 268.443 76.3095C267.903 72.1695 267.633 66.6195 267.633 59.6595C267.633 52.6395 267.663 47.6895 267.723 44.8095C267.843 41.9295 268.083 39.1395 268.443 36.4395C268.803 33.6795 269.283 31.6395 269.883 30.3195C270.543 28.9395 271.443 27.7095 272.583 26.6295C273.783 25.4895 275.163 24.7695 276.723 24.4695C278.343 24.1095 280.353 23.9295 282.753 23.9295H283.833ZM287.433 24.0195H298.863C301.263 24.0195 303.243 24.1995 304.803 24.5595C306.423 24.9195 307.803 25.6695 308.943 26.8095C310.143 27.8895 311.043 29.1195 311.643 30.4995C312.303 31.8795 312.813 33.9495 313.173 36.7095C313.713 40.8495 313.983 46.4295 313.983 53.4495C313.983 60.4095 313.923 65.3295 313.803 68.2095C313.743 71.0895 313.533 73.9095 313.173 76.6695C312.813 79.3695 312.303 81.4095 311.643 82.7895C311.043 84.1095 310.143 85.3395 308.943 86.4795C307.803 87.5595 306.423 88.2795 304.803 88.6395C303.243 88.9395 301.263 89.0895 298.863 89.0895H297.783V35.1795C297.783 34.2795 297.543 33.6195 297.063 33.1995C296.643 32.7795 295.653 32.5695 294.093 32.5695H287.433V24.0195ZM354.269 69.3795H366.869C367.529 69.3795 367.859 69.7995 367.859 70.6395V86.4795C367.859 88.1595 367.019 88.9995 365.339 88.9995H343.559V80.4495H351.929C352.889 80.4495 353.369 80.3595 353.369 80.1795C353.429 79.9395 353.459 79.6695 353.459 79.3695V70.3695C353.459 69.8895 353.519 69.6195 353.639 69.5595C353.759 69.4395 353.969 69.3795 354.269 69.3795ZM340.409 88.9995H330.959C328.919 88.9995 327.569 88.6695 326.909 88.0095C326.309 87.3495 326.009 85.9695 326.009 83.8695V29.0595C326.009 26.9595 326.309 25.5795 326.909 24.9195C327.569 24.2595 328.919 23.9295 330.959 23.9295H340.409V88.9995ZM390.683 88.9995H381.233C379.193 88.9995 377.843 88.6695 377.183 88.0095C376.583 87.3495 376.283 85.9695 376.283 83.8695V29.0595C376.283 26.9595 376.583 25.5795 377.183 24.9195C377.843 24.2595 379.193 23.9295 381.233 23.9295H390.683V88.9995Z" fill="#113157"/>
<path d="M170.786 167H161.336C159.296 167 157.946 166.67 157.286 166.01C156.686 165.35 156.386 163.97 156.386 161.87V107.06C156.386 104.96 156.686 103.58 157.286 102.92C157.946 102.26 159.296 101.93 161.336 101.93H170.786V167ZM233.042 101.93V161.87C233.042 163.97 232.712 165.35 232.052 166.01C231.452 166.67 230.132 167 228.092 167H215.312C211.772 167 209.432 166.46 208.292 165.38C207.212 164.3 206.252 161.51 205.412 157.01C203.732 148.13 201.302 133.79 198.122 113.99C197.882 112.49 197.522 111.53 197.042 111.11C196.622 110.69 195.872 110.45 194.792 110.39H183.722V101.93H203.252C204.752 101.93 205.952 102.11 206.852 102.47C207.752 102.83 208.472 103.61 209.012 104.81C209.612 105.95 210.002 107.06 210.182 108.14C210.422 109.22 210.662 110.48 210.902 111.92C211.202 113.66 211.622 116.21 212.162 119.57C213.182 126.35 214.772 135.92 216.932 148.28C217.772 153.56 218.342 156.53 218.642 157.19C219.002 157.79 219.602 158.15 220.442 158.27V105.53C220.442 104.45 220.742 103.58 221.342 102.92C221.942 102.26 222.722 101.93 223.682 101.93H233.042ZM183.722 113.54H193.082C194.042 113.54 194.822 113.87 195.422 114.53C196.022 115.19 196.322 116.06 196.322 117.14V161.87C196.322 163.91 196.052 165.29 195.512 166.01C194.972 166.67 193.892 167 192.272 167H183.722V113.54ZM245.947 101.93H255.397C257.437 101.93 258.757 102.26 259.357 102.92C260.017 103.58 260.347 104.96 260.347 107.06V167H250.897C248.857 167 247.507 166.67 246.847 166.01C246.247 165.35 245.947 163.97 245.947 161.87V101.93ZM270.067 140.09H280.327C282.127 140.09 283.417 140.6 284.197 141.62C284.977 142.58 285.367 144.17 285.367 146.39V167H273.307C272.347 167 271.567 166.67 270.967 166.01C270.367 165.35 270.067 164.48 270.067 163.4V140.09ZM270.337 101.93H280.687C282.427 101.93 283.537 102.26 284.017 102.92C284.497 103.58 284.737 104.96 284.737 107.06V126.14C284.737 129.74 284.077 132.44 282.757 134.24C281.497 135.98 278.917 136.85 275.017 136.85H263.947V128.3H267.907C268.987 128.3 269.647 128.12 269.887 127.76C270.187 127.34 270.337 126.65 270.337 125.69V101.93ZM311.675 167H302.225C300.185 167 298.835 166.67 298.175 166.01C297.575 165.35 297.275 163.97 297.275 161.87V107.06C297.275 104.96 297.575 103.58 298.175 102.92C298.835 102.26 300.185 101.93 302.225 101.93H311.675V167ZM339.485 154.4V162.05C339.485 164.09 339.155 165.44 338.495 166.1C337.835 166.7 336.455 167 334.355 167H315.275V154.4H339.485ZM334.085 127.85V133.25C334.085 135.41 333.875 136.79 333.455 137.39C333.035 137.93 331.835 138.2 329.855 138.2H315.275V127.85H334.085ZM338.585 101.93V109.58C338.585 111.62 338.255 112.97 337.595 113.63C336.935 114.23 335.555 114.53 333.455 114.53H315.275V101.93H338.585ZM392.144 134.33L392.234 149.54C392.234 156.68 391.334 161.39 389.534 163.67C387.734 165.89 384.464 167 379.724 167H366.494V158.45H373.154C374.654 158.45 375.644 158.27 376.124 157.91C376.604 157.55 376.844 156.86 376.844 155.84V113.18C376.844 112.1 376.604 111.38 376.124 111.02C375.644 110.66 374.654 110.48 373.154 110.48H366.494V101.93H380.624C385.004 101.93 388.034 102.95 389.714 104.99C391.454 106.97 392.324 110.87 392.324 116.69L392.144 134.33ZM363.794 167.09H354.344C352.364 167.09 351.044 166.76 350.384 166.1C349.724 165.38 349.394 164 349.394 161.96V107.06C349.394 105.02 349.724 103.67 350.384 103.01C351.044 102.29 352.364 101.93 354.344 101.93H363.794V167.09Z" fill="#113157"/>
</svg>
