<svg width="18" height="18" viewBox="0 0 18 18" fill="none" xmlns="http://www.w3.org/2000/svg">
<path fill-rule="evenodd" clip-rule="evenodd" d="M18 9C18 13.9706 13.9706 18 9 18C4.02944 18 0 13.9706 0 9C0 4.02944 4.02944 0 9 0C13.9706 0 18 4.02944 18 9ZM3.58579 13L4.29289 12.2929L7.58579 9L4.29289 5.70711L3.58579 5L5 3.58579L5.70711 4.29289L9 7.58579L12.2929 4.29289L13 3.58579L14.4142 5L13.7071 5.70711L10.4142 9L13.7071 12.2929L14.4142 13L13 14.4142L12.2929 13.7071L9 10.4142L5.70711 13.7071L5 14.4142L3.58579 13Z" fill="#222222"/>
</svg>
