<svg width="123" height="123" viewBox="0 0 123 123" fill="none" xmlns="http://www.w3.org/2000/svg">
<path fill-rule="evenodd" clip-rule="evenodd" d="M1.04006 79.9601L64.7001 16.3001C65.2501 16.3701 65.8301 16.2001 66.2501 15.7801C66.6701 15.3601 66.8501 14.7801 66.7701 14.2301L79.9601 1.04006C81.3501 -0.349941 83.6201 -0.349941 85.0101 1.04006L95.4401 11.4801C92.7001 15.9501 93.2701 21.8701 97.1401 25.7401C101.01 29.6101 106.93 30.1701 111.4 27.4401L121.83 37.8701C123.22 39.2601 123.22 41.5301 121.83 42.9201L108.64 56.1101C108.09 56.0401 107.52 56.2101 107.09 56.6301C106.67 57.0501 106.49 57.6301 106.57 58.1801L42.9201 121.83C41.5301 123.22 39.2601 123.22 37.8701 121.83L27.5001 111.47C30.4801 106.96 29.9801 100.84 26.0201 96.8701C22.0501 92.9001 15.9301 92.4101 11.4201 95.3901L1.04006 85.0101C-0.349941 83.6201 -0.349941 81.3501 1.04006 79.9601ZM102.27 51.8101C102.99 51.0901 104.16 51.0901 104.88 51.8101C105.6 52.5301 105.6 53.7001 104.88 54.4201C104.16 55.1401 102.99 55.1401 102.27 54.4201C101.55 53.7001 101.55 52.5301 102.27 51.8101ZM97.4401 46.9801C98.1601 46.2601 99.3301 46.2601 100.05 46.9801C100.77 47.7001 100.77 48.8701 100.05 49.5901C99.3301 50.3101 98.1601 50.3101 97.4401 49.5901C96.7201 48.8701 96.7201 47.7001 97.4401 46.9801ZM92.6101 42.1501C93.3301 41.4301 94.5001 41.4301 95.2201 42.1501C95.9401 42.8701 95.9401 44.0401 95.2201 44.7601C94.5001 45.4801 93.3301 45.4801 92.6101 44.7601C91.8901 44.0401 91.8901 42.8701 92.6101 42.1501ZM87.7801 37.3201C88.5001 36.6001 89.6701 36.6001 90.3901 37.3201C91.1101 38.0401 91.1101 39.2101 90.3901 39.9301C89.6701 40.6501 88.5001 40.6501 87.7801 39.9301C87.0601 39.2101 87.0601 38.0401 87.7801 37.3201ZM82.9501 32.4901C83.6701 31.7701 84.8401 31.7701 85.5601 32.4901C86.2801 33.2101 86.2801 34.3801 85.5601 35.1001C84.8401 35.8201 83.6701 35.8201 82.9501 35.1001C82.2301 34.3801 82.2301 33.2101 82.9501 32.4901ZM78.1201 27.6601C78.8401 26.9401 80.0101 26.9401 80.7301 27.6601C81.4501 28.3801 81.4501 29.5501 80.7301 30.2701C80.0101 30.9901 78.8401 30.9901 78.1201 30.2701C77.4001 29.5501 77.4001 28.3801 78.1201 27.6601ZM73.2901 22.8301C74.0101 22.1101 75.1801 22.1101 75.9001 22.8301C76.6201 23.5501 76.6201 24.7201 75.9001 25.4401C75.1801 26.1601 74.0101 26.1601 73.2901 25.4401C72.5701 24.7201 72.5701 23.5501 73.2901 22.8301ZM68.4601 18.0001C69.1801 17.2801 70.3501 17.2801 71.0701 18.0001C71.7901 18.7201 71.7901 19.8901 71.0701 20.6101C70.3501 21.3301 69.1801 21.3301 68.4601 20.6101C67.7401 19.8901 67.7401 18.7201 68.4601 18.0001ZM25.4501 74.9101L64.8301 35.5301C66.4501 33.9101 69.1001 33.9101 70.7201 35.5301L88.8201 53.6301C90.4401 55.2501 90.4401 57.9001 88.8201 59.5201L49.4401 98.9001C47.8201 100.52 45.1701 100.52 43.5501 98.9001L25.4501 80.8001C23.8301 79.1801 23.8301 76.5301 25.4501 74.9101Z" fill="#204E66"/>
</svg>
