<svg width="123" height="123" viewBox="0 0 123 123" fill="none" xmlns="http://www.w3.org/2000/svg">
<path fill-rule="evenodd" clip-rule="evenodd" d="M1.0425 79.9625L64.7025 16.3025C65.2525 16.3725 65.8325 16.2025 66.2525 15.7825C66.6725 15.3625 66.8525 14.7825 66.7725 14.2325L79.9625 1.0425C81.3525 -0.3475 83.6225 -0.3475 85.0125 1.0425L95.4425 11.4825C92.7025 15.9525 93.2725 21.8725 97.1425 25.7425C101.013 29.6125 106.933 30.1725 111.403 27.4425L121.833 37.8725C123.223 39.2625 123.223 41.5325 121.833 42.9225L108.643 56.1125C108.093 56.0425 107.522 56.2125 107.092 56.6325C106.672 57.0525 106.493 57.6325 106.573 58.1825L42.9225 121.833C41.5325 123.223 39.2625 123.223 37.8725 121.833L27.5025 111.473C30.4825 106.963 29.9825 100.843 26.0225 96.8725C22.0525 92.9025 15.9325 92.4125 11.4225 95.3925L1.0425 85.0125C-0.3475 83.6225 -0.3475 81.3525 1.0425 79.9625ZM102.272 51.8125C102.992 51.0925 104.162 51.0925 104.882 51.8125C105.602 52.5325 105.602 53.7025 104.882 54.4225C104.162 55.1425 102.992 55.1425 102.272 54.4225C101.552 53.7025 101.552 52.5325 102.272 51.8125ZM97.4425 46.9825C98.1625 46.2625 99.3325 46.2625 100.053 46.9825C100.773 47.7025 100.773 48.8725 100.053 49.5925C99.3325 50.3125 98.1625 50.3125 97.4425 49.5925C96.7225 48.8725 96.7225 47.7025 97.4425 46.9825ZM92.6125 42.1525C93.3325 41.4325 94.5025 41.4325 95.2225 42.1525C95.9425 42.8725 95.9425 44.0425 95.2225 44.7625C94.5025 45.4825 93.3325 45.4825 92.6125 44.7625C91.8925 44.0425 91.8925 42.8725 92.6125 42.1525ZM87.7825 37.3225C88.5025 36.6025 89.6725 36.6025 90.3925 37.3225C91.1125 38.0425 91.1125 39.2125 90.3925 39.9325C89.6725 40.6525 88.5025 40.6525 87.7825 39.9325C87.0625 39.2125 87.0625 38.0425 87.7825 37.3225ZM82.9525 32.4925C83.6725 31.7725 84.8425 31.7725 85.5625 32.4925C86.2825 33.2125 86.2825 34.3825 85.5625 35.1025C84.8425 35.8225 83.6725 35.8225 82.9525 35.1025C82.2325 34.3825 82.2325 33.2125 82.9525 32.4925ZM78.1225 27.6625C78.8425 26.9425 80.0125 26.9425 80.7325 27.6625C81.4525 28.3825 81.4525 29.5525 80.7325 30.2725C80.0125 30.9925 78.8425 30.9925 78.1225 30.2725C77.4025 29.5525 77.4025 28.3825 78.1225 27.6625ZM73.2925 22.8325C74.0125 22.1125 75.1825 22.1125 75.9025 22.8325C76.6225 23.5525 76.6225 24.7225 75.9025 25.4425C75.1825 26.1625 74.0125 26.1625 73.2925 25.4425C72.5725 24.7225 72.5725 23.5525 73.2925 22.8325ZM68.4625 18.0025C69.1825 17.2825 70.3525 17.2825 71.0725 18.0025C71.7925 18.7225 71.7925 19.8925 71.0725 20.6125C70.3525 21.3325 69.1825 21.3325 68.4625 20.6125C67.7425 19.8925 67.7425 18.7225 68.4625 18.0025ZM25.4525 74.9125L64.8325 35.5325C66.4525 33.9125 69.1025 33.9125 70.7225 35.5325L88.8225 53.6325C90.4425 55.2525 90.4425 57.9025 88.8225 59.5225L49.4425 98.9025C47.8225 100.523 45.1725 100.523 43.5525 98.9025L25.4525 80.8025C23.8325 79.1825 23.8325 76.5325 25.4525 74.9125Z" fill="#FCDE39"/>
</svg>
